<mxfile host="app.diagrams.net" modified="2024-06-19T17:23:48.818Z" agent="Mozilla/5.0 (Windows NT 10.0; Win64; x64) AppleWebKit/537.36 (KHTML, like Gecko) Chrome/126.0.0.0 Safari/537.36" etag="TH8UCO8ZHB6AdI0CAGz_" version="24.5.5" type="device">
  <diagram name="Page-1" id="SRSsPQFXfsmErmjC-7D9">
    <mxGraphModel dx="3195" dy="24" grid="1" gridSize="10" guides="1" tooltips="1" connect="1" arrows="1" fold="1" page="1" pageScale="1" pageWidth="850" pageHeight="1100" math="0" shadow="0">
      <root>
        <mxCell id="0" />
        <mxCell id="1" parent="0" />
        <mxCell id="ZKxTClD7ub414lZPncy7-1" value="" style="shape=image;imageAspect=0;aspect=fixed;verticalLabelPosition=bottom;verticalAlign=top;image=data:image/png,iVBORw0KGgoAAAANSUhEUgAAA1IAAAEXCAYAAACnLHXxAAAAAXNSR0IArs4c6QAAAARnQU1BAACxjwv8YQUAAAAJcEhZcwAADsMAAA7DAcdvqGQAAI5USURBVHhe7Z0JvFbT+seXoVJUKklSqQiJZGxAxpAhIkOGDBmuISJcU12UebgyzzdT3QwZSmWKQrqlkErmyBT+IZnC+u/vc/Y67fP2nuE943ve8/t+Pvucd689r7X3Ws+z1vM8axUf4YQQQgghhBBClJhV4/9CCCGEEEIIIUqIFCkhhBBCCCGEyBApUkIIIYQQQgiRIVKkhBBCCCGEECJDpEgJIYQQQgghRIZIkRJCCCGEEEKIDJEiJYQQQgghhBAZIkVKCCGEEEIIITJEipQQQgghhBBCZIgUKSGEEEIIIYTIEClSQgghhBBCCJEhUqSEEEIIIYQQIkOkSAkhhBBCCCFEhkiREkIIIYQQQogMkSIlhBBCCCGEEBkiRUoIIYQQQgghMkSKlBBCCCGEEEJkiBQpIYQQQgghhMgQKVJCCCGEEEIIkSFSpIQQQgghhBAiQ6RICSGEEEIIIUSGSJESQgghhBBCiAyRIiWEEEIIIYQQGSJFSgghhBBCCCEyRIqUEEIIIYQQQmSIFCkhhBBCCCGEyBApUkIIIYQQQgiRIVKkhBBCCCGEECJDpEgJIYQQQgghRIZIkRJCCCGEEEKIDJEiJYQQQgghhBAZIkVKCCGEEEIIITJEipQQQgghhBBCZIgUKSGEEEIIIYTIEClSQgghhBBCCJEhUqSEEEIIIYQQIkOkSAkhhBBCCCFEhkiREkIIIYQQQogMkSIlhBBCCCGEEBkiRUoIIYQQQgghMkSKlBCVxN9//x3/EkIIIYQQ1R0pUkJUAiNGjHD169d36667rnv22WfjVCGEEEIIUV2pNEXqwAMPdKusskqRy+qrr+7atGnj+vXr5yZNmhQfWZBddtkl7bFh+c9//hPvuYKFCxe6c845x3Xs2NHVqVPH9qtdu7bbdNNN3RFHHOHuvvtut2TJknjvlfHeu+eff96dfvrpbosttnANGjTIvx6C8U477eTOO+8899JLL7m//vorPio9xx57bP6xqcuGG24Y77WCt956K+2+W221VbxHel5++eW0x4Ul3bVExfDrr7+6s88+2/3yyy/u22+/deeff368pXpR1u9ICCGEECKXWCVSEnz8u0JByZg5c6a7/vrr3eLFiy2NHvrjjz/e/fbbb+7DDz90r7zyivvzzz9tGxx99NGmGK266gp9b+LEiW7evHnu3nvvtf+BY445xu2www6uZ8+ebqONNopTnRs9erRdA2EWmjVr5tq1a2cC33vvvWdKEtx///2m5KTCNU444QT3xhtvxCnOhEcUvlq1arlPP/3U/fzzz/EW52bPnl2kkoOCM27cOPfAAw+YUB1AEdt6663dYYcdFqfk8X//939uzJgxpsg98cQTJrxyP7vttpsJr4Xx9ddfuyeffNItWLDA/fvf/45TnVt//fXdoEGDXKtWrdyhhx4ap4qKhHcP5Tu82507d3azZs2y39WFsn5HQgghhBA5B4pUZdK7d28kLltat24dp+YRKVO+ffv2+dtZ7rrrrnhrQYYOHVpgv08++STesoJIafGREmbbV1ttNT9y5Ej/119/xVu9nzt3bv7xkQAYp67gxRdf9GuttVb+Pk2bNrX7Wbp0abyH98uXL/fnn39+/j6RIhVvKZpLLrkk/xiWSNGMt6QnPO8uu+wSp5Sc5HX69+8fp1Y9d9xxR9bdU2koyXPceOONvl69er558+Z+4sSJcWr1oKzfUWn5448/fMuWLe286b5vIYQQQoiqJKt8pOjhjoTSeC0PesJLS6Ss5Dv4H3nkkTZqlRzd6tChg43MpCMSDt0BBxyQP9qEKdybb77pTjzxRBcpV5YGmCP27ds3Xis5jLYliYTT+Fd6Hn74YfsfCev2v7rD6My1114br1VfSvocZ511llu2bJn78ssv3V577RWnVg/K8h2VBd75zz//PF4TQgghhMguskqRgp133jn+lccXX3wR/8oMfJVee+21eM25Jk2axL8Kgr9HKpGCaWZMCL6BUaNGuZYtW8ZrBeEcq622WrxWMjbeeGPXvXv3eM25xx9/3Hxo0vG///3PTB/r1q3rDj744Di1eoMJ2EcffRSvVV8yfY6ffvrJTFmrC2X5jsoCJoTDhg2L14QQQgghso+sU6RQYpIQzKE0MFKQDDeNIpT0SQowEvTJJ5+4Qw45JE5x7sUXXzTlJYDfVZcuXeK1lcHxnvMjVGfSM5/0JWHka+zYsfFaQcJoFAE78CsrT+jxf+ihh9wpp5xiIwv4YOFTxf0wOkggDZ4PRREftFdffTU+siDk95133ul23HFHt+aaa9p56tWrZ/5qRx11lPmFASMyjGicdNJJtg6ck7wIyz333OPefvttd/vtt9u+7du3t/OF0Ur85Bo3bmyK5cknn+x+/PFH8wdj1Af/NEZLCEoSWL58ufmm/etf/7L0NdZYw6299trx1pVh38MPP9z8yTgX10bxveCCC9wPP/xg+5T0OXi3+E8eMKrZsGFDd9VVV8VHFOS7775zQ4YMcdtuu21+HjL6icLNqFfSFw/++OMPN3XqVHfFFVe4vffe284dngsfLO5tgw02sPOss846lj8ckwll+Y6SfPbZZ+abR1niY8g9tWjRwvLwnXfeiffKg2tssskmBRTUwYMHF8hb8koIIYQQokoxA79KpCgfKZg0aVL+dpYRI0bEWwpSEh+pbbbZpsA+kXDm33jjjXhr4QwYMKDAcfjAVASRAuAjZSD/OpHCFm9ZQSTI+mbNmtn20vrWhPOzpPrx9OjRo8B2FtKaNGmyUjpLJOD7SCiOj87jt99+87vttlv+Ptttt50//fTTfSRU+0jxszTKHVLLLd3CPfJupKbjf3PDDTf4SAjPT9tzzz3N/yi5HwvPEMBvLXV7pHTEW1ewbNkyf8QRR+Tv065dO3/NNdf4c889Nz+tY8eO/pdffinxcyTf97BwbCqRIugbNGhg2/FHOvroo32k+PlIMc0/jjxJ+uBNnjw5f1tYIiXR9+rVa6X0sAwcODA+uuSU9jsK/Oc///GRMm7Htm3b1kcKlT/uuOPy3/1IsfKPP/54vHfB97WwRT5TQgghhKhqskqRev/99014Ddv79OljikQ6SqJIpSplYdlnn338888/H++1Mttvv32B/adPnx5vKX+SgjsC9JdffhlvyQPliW3rrbdeoXlRHOH8LKmKFIEzlixZki/Es1AGZ5xxhr/11ltNke3cuXOBcwwfPjw+Og+Um7CNvPv777/jLd4/99xzlh4UqUBSgUu9pyQoPGE/Am2E32E58sgj4z0LvltJRSqQVLhSFSnu+cADD8zf3qVLF//zzz/btlSFZdy4cZYOJX2OpGKYqkhx/lq1auVvHzNmTLwl775QOsI2lOrwjhDohLK74oor8rfzDvEclNE999zjzzzzzALnJuAFQRwyobTfETz99NP5ii/vBspqYMKECfnn4r6S735qnktxEkIIIUS2UaWmfYT2xtwIE6RIILX5aD7++GMXCVwWHvyxxx7L2PcoCSZ5mJsRECJJJMC5Pffc066TzlQNs60kpTUvLAmYKQUwocLMLkkw62NurbLkRWFgOoY5GKZWAebLYgLZU0891UUKlZsyZYqZhgUwu0vywgsvxL/ygm8kz4W5YHmBn9h1111nc4yF0O+Y35UH+KhhHhi46667zLwuFZ6tMF+50oAPEvmM+SHgI5gMXsL1rrnmGjOHg2+++cZdeuml9pu8puwwcQxg+omJ6IUXXmhh8jHTvPzyy+OtzvzwyMdMKO13xDPxLkX1jK1fdNFFZu4ZwByxUaNG9pv7SjcHnBBCCCFEtlKlitTSpUvdTTfdZBN5IqyjSDRv3twErD59+hQQyEsLStqMGTMK+MwESEeBY26rJAi3lcUee+xhviKBBx98MP6V53Af/KbwJakqULbw2wn8/vvv8a88kv5Gr7/+ujvooIPyhXWejbmGgkJYFpgMlgXBHoWTObuY6LY8uO222+Jfzm2++eY28XIARYH3FB+fZ5991m255ZbxlrIzffp0N3/+/HjNuV69esW/VoASi+9Z4L///W9G72jqu59afiWhNN8Rvmb4RgXwO0SxSy5BQYSkX6IQQgghRLZTpYpU69atTZliQk8c+XHsZzTosssusyAHhUWxyxQCEEyePNkm1d1///3j1DxQ3nBkHz9+fJzi3HrrrRf/yiNMIJwJRPwjOES6BYE8wDMnlaQ5c+a4t956y34/9dRTFmAAwb1Tp06WVlUwAWthkH/JkQZGdhhdZBSN0SsUrXSjO2WBfKNcU8uqtCRHVDbbbLP4Vx4828CBA90NN9xgSn55giKVJDmZdBKCLwQIeJHJqFJRZZcJmX5HKLpJhg8fbu9+cmGELYDCLYQQQghRXajyqH2MdiAkEnksGe4YIezGG2+M18oHos49/fTT7rnnnlspjDNCcqBr167xrzyYPypTMGtCEUq3IIwm6Z8yNxRmjRBGcVLnnMo2OnfubMI1ym+AEROiryF8Y2JG2O9sBcUkmNZBeYyElpRU5SE5R1mS5MgNVGXUupJ+R3SSJEHZwsyvsIURLCGEEEKI6kJWhT/HTCtpJkb4a4Sv0oCQh/9ROmUMvw62JwXmd999N/7lVppgF1+t4iD8M6ZK6UJDFweKJMJp4JFHHrFRMMJ8M/LCJKjZDqZwmGeSr/vuu2+cmsd9991no1PZSupoWWXOb5Uazj5V+QgQhjxJ8C2qaMryHaUqWbkwb5gQQgghRCCrFCnmK0oK3EzGm2r6VFLmzZtnyk1hDuxbb721mZ8FkkIffiDJyXJfeumltM70ASZYPfHEE81UKUwgjEKYrtedJZjuJUkGncDcifMhPONDhd9YNoPCG0bPEK6ZMwoTRfI4gMlXYRPRlpdPWq1ateJfeaNMJYXj8IsKMBpK0JNMKc1zJH3PoDCTvQ8++CD+lad8FWYCWN6U5TvCtyxJYfOklYTK9FsUQgghhCgJWaVIAROhJinJaFBRFCaY4nCfNI/aZ5994l953Hvvva5BgwbxmrNRoaTjfBIE76RpWGnguVEkA5hOQVUGmSgp+LcRBCJJx44dC4xiYJqWfL4kST+ZspAcpSGAQybnDVEAAWWXiX7TTV7Ltq+//jpeK0hpnoMgEkzUGwjlngSlkIl3A9xrqqlfRVOa74hJrJP+ZpjuJgNrJCGwCmavhVFe74gQQgghRHmRdYoUgmX79u3jtTyFpjTBHgIErHjttdfitTwQyo466qh8MzxGfAgXnQRzO4ImBGUKJWqbbbZxt95660r+Ps8//3z8q/QwgkUgiiT4yxABrzpAnn711VfxWh7vvPNO/Mu53r17FzABS4bSxjeGaHiUFYJ5acsbX60AShAji0TbYzQF3x1MJQvjzDPPdBtvvHG8lhfSHUWA6ICzZs2yd4jQ6wT9uOOOO+K9yv4cjIbdfPPN+Xkzbdo0N2bMGPsd4N1E0QCiICbDmVcWpfmOMEvF3JX/wHeD/yH3z0jzggUL7Ns577zzTJlMKt6podYJAf/555+bIst10ym5QgghhBCVSiSYVAqRYOqvvvpq36RJk/xJNiNhyV9yySV+5MiR8V55MAFoJHzl79eqVSs/ZMgQf//99/tnnnnGX3/99b5Dhw7521mOOeYYm0D2gw8+sHNEQlmB7U2bNvWREOw33XRTv9pqq+Wnb7HFFvnHpGP+/Pk2OWvyXExwynFMxrrZZpvlTzjKMnv27PjIzBk/fnyB6xQ1wWtxREqNv/322/1ZZ51V4Jzrr7++v/baa/1///tf2++tt97ykbJaIE/2339/HykEtp0Je8nzjh075m9v06aNHzt2bP4kqWHSXCb1Peyww/w555xjkymHc2600Ub+iy++sH0DkfCcf77UheeeMWNG2vviuoXl8XfffecbN25c4FxhWXfddf1ee+2Vv867x/vE8wc+/PBDHynQBY5LXSj7Bx54ID6i+OeYOXOmjxQ5v8Yaa+Sn77rrrjZRLWUU4BsI+/Du8z7/61//8jvvvHP+cdzb3Llz4yPyyobJgZkYN+zDc3G9jz/+2PYhr4YNG5a/neWf//ynTfRcEsrjO+LZ6tSpU+A8qQvPfuWVV8ZHeP/9998XyLPURRP0CiGEEKKqqTRFqnfv3mkFIhYE8VQQEBHYU/dt3br1SmnJBeEYvv76a//vf//bH3zwwb5du3YmALMd4a9Fixb+wAMP9KNGjfLLly+3/Yvi77//NuXu6KOP9u3bt88/F0uzZs189+7d/aBBg0w4/eOPP+KjMufPP//06623Xv65X3zxxXhL5kyePDn/POkW8hGKKhdAEE+3jWXo0KG2z0033eT79u1rCtOaa65p22rXru07d+7sL7/8cv/TTz/ZfkmWLVvmTzrppHzFmuO6du3qL730Uj9v3jxTUpPXSi5sKwwUl5122snKGaUCof+aa64xpSNVKWDh+ZP88ssv9jwoz3Xr1rV91lprLbs3nuWzzz6L98yjLM8R3tXAwoUL7T1CSSH/2KdRo0Z+991393feeaf//fff4z3zKEnZFFe+xVFe3xHPNnDgQHtHwjnIM56NjhGuk8pzzz1n5Rf2p0OFb/CRRx5ZKS+EEEIIISqbVfgTCSlZC5G+fvzxRzOBYs6gpk2bxluEEEIIIYQQomrIekVKCCGEEEIIIbKNrAs2IYQQQgghhBDZjhQpIYQQQgghhMgQKVJCCCGEEEIIkSFSpIQQQgghhBAiQ6RICSGEEEIIIUSGSJESQgghhBBCiAyRIiWEEEIIIYQQGSJFSgghhBBCCCEyRIqUEEIIIYQQQmSIFCkhhBBCCCGEyBApUkIIIYQQQgiRIVKkhBBCCCGEECJDpEgJIYQQQgghRIZIkRJCCCGEEEKIDJEiJYQQQgghhBAZIkVKCCGEEEIIITJEipQQQgghhBBCZIgUKSGEEEIIIYTIEClSQgghhBBCCJEhUqSEEEIIIYQQIkOkSAkhhBBCCCFEhkiREkIIIYQQQogMkSIlhBBCCCGEEBkiRUoIIYQQQgghMkSKlBBCCCGEEEJkiBQpIYQQQgghhMgQKVJCCCGEEEIIkSFSpIQQQgghhBAiQ6RIiazh77//duPHj3fTpk2LU4QQQgghhMhOpEiJrGHIkCFuv/32c926dXMPP/xwnCqEEEIIIUT2USWKlPfePfPMM+7www93G2ywgatVq5ZbZZVV3FprreW23nprd/rpp7spU6bEe2c3n376qd17uuXYY4+N9xIlYebMmfEv52bPnh3/qnreeuuttOVb2MI7IYQQQgghcptVIqXGx78rhYULF5oC9cYbb9j6euut53r16uVatGjhvvjiC/f000+77777zvXo0cO9/PLLtk828+eff7r33nvPPfHEE27o0KGWtv7667tHH33UtWnTxjVv3tzSKpolS5a4m266ye29996uS5cucWr2MXbsWLdgwQL3z3/+M05Zwbhx49xRRx3lGjRo4CZMmOA233zzeEvV8scff7j58+e722+/3d15552Wtuuuu7qBAwfab/jrr7/cP/7xD/ftt9+6Tz75xG244YbxltzkxhtvtHebb1kIIYQQokaCIlVZfPbZZz5SmFDcbDn33HP9b7/9Fm/NY/To0bYtUqTilOrB5MmT85+rU6dOcWrlccUVV9i1IwE3Tsk+fv75Z9+oUSPfsGHDOKV6cf/99+eXcf/+/ePUFey///62LVKk4pTc5PXXX7fn7N27d5wihBBCCFHzqFTTvuOOO85GnWDAgAHummuucXXq1LH1QOfOneNfoqQwYnLzzTfHa9lLpIjYyFlx/PTTTzbSV93YfvvtXevWrd3qq68ep1Qu0fcc/yoIecl3RzCP8uD666+PfwkhhBBC1FwqTZF68cUXbQF8ooYPH26/U9loo43MbAg/qSTff/+9u+iii1yHDh3yfapatmzpTjrpJPfRRx/Fe+UxZ84cd/XVV7tddtnFhFpM3n7++Wd36KGH2nE77bRTvGceTz75pNt9993dmmuuadvXXXdd82/67LPP4j1KD8Lr66+/bvfeqVMnO/+sWbPM9G/PPfd0a6yxhltttdXcPvvs47788sv4qDwwF7vttttMueQ5OLZJkyb2XKNHj7Z9Pv74Y9e7d2/31Vdf2fr//vc/95///MeWiRMnmgB9zz33uD59+rj69eu7gw46yATuq666yq6Ljxrmls8995yZpmGWyHV++OEHO9+yZcvc448/7o4++mjXuHHjtCZrP/74o7vsssvMFC+UDeV4+eWXu+XLl1seYBJ38cUX2/4ofuEeWbh37vuCCy5wm266qWvYsKF79dVXbd8kmNcdf/zxVu5cg2vxPlx66aV2D4Fff/3VfPBOOeUUe761117byp/3aquttrLnpqx5x7i/8oLnwz+Ka0J5v7O///67e/75591ZZ51l+YTSxj7XXnutXWPVVVe18vnvf/9r5yS/Tj75ZHtnuCeuzTuRCuXPOTfZZBPLG66Hv+Iee+xRIILi0qVL3dlnn21mrMD3kSzHwKRJk+zY8D1xLt5hgokIIYQQQuQMNi5VCURCbb5Z1K677hqnloy5c+fmmwRGAqSPlBAfKT9+6623trRIYPORIhDv7c10rG7duvnXu+aaa3wkQOevRwKj7RcJ+D4Sai0tUiD83Xff7UeNGpW/b6RQ+UjItH2LozDTPo7nfiJBOn/7euutl/87uRx44IHxUXmEe+NZrrvuOnvugQMHWlowLWvXrl2BcyQXzCP33XdfHylQ+WlHHXWUP+aYYwrsFwnLPhLKC9zjkiVL7Pz33nuvbQvp/E7y4Ycf+jZt2ti2tm3b+qeeesqPHTs2f3/MNx988MH89XQLZUke1a5dOz+N/EwSKQe+Tp06to1nihQCu7emTZtaGvmA6Sg8/PDDdr5IiLdtkWLiI2Ui/9zJ5d///rcdUxIKM+3jPeLehg4dGqdUzDs7bty4lZ6Ld4klUsjz940UKh8pzrZ9nXXWyU9nwbTyl19+ia/qfaTA2r2wbb/99vMvvfSSfQchv9gWKfi27wknnFDgXKkLkPdhPVJUfaSEm9kp95367gghhBBCVGcqTZHq2rVrvoB1xhlnxKnF8/vvv/uNNtrIjkPQ//jjj+Mt3n/33XcmoLGN/99++228paDQy3GbbbaZ79y5s63vsssuts9dd92Vv89rr71mafDuu+/mp6N0lITifKQQvMP2O+64w+6VZ3vkkUfyBWMUiT/++MP2R3gN6QjFSZo1a1ZAkE8+azofKXx2wnbyAsF755139quttpoJ3X/99Zftx32H/YIiFQjpSWF4+fLlvkOHDpaOwB18g2bPnp2/P9cJBIWMskrHmWeemX9cUpGaP39+vpJFOYY8ghdeeCH/mO7du8epeYTroaBQvvho/fjjj/6ss87KPyYTpT6Zz0cccYTlEcusWbMsLShSFfnOQngu8nzRokWWxjUPPfTQ/OP33ntve1Zgn5YtW+ZvQ1kKoOyEdPI/cNVVV+Wn33777XFqwXcpnY8USiPbGjduHKfkcdhhh0mREkIIIUROUWmmff/3f/8X/3JmIlZSHnvsMffhhx/ab8zviIQXwGTp4IMPtt+YdkWCqP1OZdCgQW7evHlmUnfvvfeauRNceeWV9h+TN0yjMGdjwbwtEmRtGyZi5c0OO+zg1llnHRcpBy4SyM3kDzB5Cz5E+AlF5WO/MecKZpFwww03uH79+sVrmcG1MeV65ZVXzJwPE0tMwkrDmDFjLF+hb9+++WZ/mEYyF1THjh3TRufLFJ6XvIFIgcwvG+CdaNu2rf2OlCU3Y8YM+52EfOZ+IsXDIgL+61//irc49/XXX8e/MmPUqFGuUaNGthCyP0lFvrNJMAEk2iXwjPggBiJl254V2CdcExYvXhz/ypu7i0iKLCeccEKcmmdiG8gkj4JJKN87vlTBL+vUU0+VaZ8QQgghcopKU6QaNmwY/8rzHSkpCPyBoHAkSaZNnTo1/lWQZAhyfGwI2bxo0SILUw34fgShmAVFL/jOoNj88ssv9ruiCD41EK6FILvNNtvYb+4PnxNCmxMSHiWqZ8+eti1TEOQRumG33XYrk6KDL0xgu+22i3/lhX9HqcHvB9+vslIe70AS3kX8dqC0Zdu9e3dTglguueSSODWPinpni4OpBAoj+f3hQxZo2rSpO/DAA90BBxxgih3+Zrxr+MSVhuR9Dh482JTpBx54wBRZnkMIIYQQIleoNEUqGY3v3XffjX8VzzfffBP/chaYIZXQ6w6ZKGjMVRXYcsst3eTJkwtdguJRUeDgnwppL7zwgjvmmGPMYR9QXJi/aN99980PLlGVJINjJEeJypuKeAfS5XkmoOgSkISFIBPJUb2KemcrAkaMiPjYunVrC2jBSBv/zzvvvHiPzGAU6oorrrDRPyDgBaOIfGNh7jghhBBCiFyg0hQpTL8CjFYUZi6EORs92bfccoutJ80A040eEFUuQHS2kkJPfABhlmhphS2YUFUFPM/IkSNN8URgD8rKs88+W2rTvvIkmd/vv/9+/Kv8qah3oLxA0WYUijKCbL/fJEwqzMIILVEDMSdkYmmiG5YGFEqiLxK9EAWTEVBAoWJElVEvIYQQQohcoNIUKXxFGE0BzOYQttKBQE6vNn4msPPOO9t/eOedd+JfK0im7bjjjvGv4sFvJPj0ECIcP6RsgjDVKHGMbuC/hQkZChWmh/Dmm2/a/1QIkV1akqM0SZ+2wujSpUv8y1k49pKayWV6jxX1DpQnXDe8T9XhfoHQ6XfccYf9xvTv3HPPzchfLrUc6RzhnWXkFB9Awt9jPhveE5So1LDvQgghhBDVlUpTpODBBx/M9wdi3hnmrkn6awDzCSU57LDD8o956aWXbN6kAI7tzHEEKBgnnnii/S4p55xzTvzLmQld0rcFkyf8kehFDw70lQlCKfeTHOlp3769mWCF3+l4++2341+ZEwIXAEEoCHgBhT0/JlvB94YRDeY8Spq1ffDBB+7CCy+M11bw22+/ZTSCxXsSlDz8bULgCWC+qXAuTNK6du1qv6uSinxnyxPuhbnKAKUqWXYlMTlklClZFpQr72zyGyaQS1CkGNlNBt4QQgghhKjOVKoihaDO5LREjgMmHaUXn2hhRNCjRzw1slfdunVtwlx6uBnJwj8IQfTpp582JQeBD/MoJgllHyBARLLnm15xIpUlhT447bTTTBmA0JveqlUrM2vCJIkRtJkzZxbp//Pnn3/aSNGUKVPilLxz8Zz4MWGqyLUZ9Qq89957JnQC25L+TkR7SyqXTIB69913W/RAFIq33nrLRg2YADeQDDKAj8v222/v9ttvP4uUxihRiKwHXAvfpnSjRwQdCNx3332mJHGtzTbbLE7NM0v7/PPPrSzIb0aiKCMYP368KRCMoJGPKHtMBhxI3ifBB3r16mUBLxC8yQfOG1iwYEG+Ikd53HXXXaZMIbwTgY5RD8weg8ko1wyTFHNvmJYRpAMYOUGpo6xYyOMwmpJ8nsIIZZz08eH+iBD47bffxikrqKh3Nt1z8SwoQ/wmbwIcGyJAMhKU9GdjIl3S+B5DxEPOwXfJt4jiQ9TAAFEew3Nithi+B9LJdwJVUJ4BRrkwExw3bpxNgsz7C5jshhFVIYQQQohqDzHQKxvmLRozZoyPBDCbE4nbYGFeHCYhPfnkk/2LL74Y751HpIj4SKmwSV8j4d7mQGKuHuakigTheK88wjw7qcv9998f77ECJlONBHCb76hevXq2X6RA2Lw9I0aM8JHQGu+ZnuS8OqkLcz1FwmzabWHOoXTbmM+HuYmYe4fnDZOtNmjQwCZNffXVV+3YAPkZKVm2nbmnmjdv7g866CCbDJV7SD0/C+mpcB7yOEzgyySww4YNs/mIUo9n0t1ApBjafFuhLGvXru232WYbf/nll/tIcYv3ypv8tVOnTlZ+5DVlfd555/lIQVnp/Czsm+TNN9+0+ZuYKJntTILLdZjzKFKI4r18gQmBk8vkyZMLzPeVXJLPk0pRZZyceymV8n5nC3su5u1i/rDUdN5jYGLm1G0hbyMF0UeKk7035Cfv/QMPPOAjRdH2SS6B//znPz5SmO08kWJl56cMeNdPPPFE23ettday7bwLnD9Seu1bE0IIIYTIFVbhTyTwCCGEEEIIIYQoIZVq2ieEEEIIIYQQuYAUKSGEEEIIIYTIEClSQgghhBBCCJEhUqSEEEIIIYQQIkOkSAkhhBBCCCFEhkiREkIIIYQQQogMkSIlhBBCCCGEEBkiRUoIIYQQQgghMkSKlBBCCCGEEEJkiBQpIYQQQgghhMgQKVJCCCGEEEIIkSFSpIQQQgghhBAiQ6RICSGEEEIIIUSGSJESQgghhBBCiAyRIiWEEEIIIYQQGSJFSgghhBBCCCEyRIqUEEIIIYQQQmSIFCkhhBBCCCGEyBApUkIIIYQQQgiRIVKkhBBCCCGEECJDpEiJasvzzz/v9txzT9ezZ0+34YYbuosuuije4tz//d//uVtvvdXtvfferlmzZnFqxfPmm2+6/fbbz+2zzz5ugw02cKeccor7888/bduxxx7rVllllZWWf//737a9oijqngLTpk1zBx98sOvSpYubPHlynFp6vv32W3fUUUe5fffd12288cZWTl9++WW81bm11167QB5stdVW8ZbSU9w1A7/++qvbYost3H/+8584peIo7p4mTJjgtt9+e3fAAQe4XXbZxb333nvxlsrlgw8+cJdeeqnbbrvt3EEHHRSn5vHHH3+4M8880+24445ur732ct27d3cLFiyIt1ZvpkyZYs/Wpk2blb5D1pPvKMuTTz4Zb608SlqXVcZ7XdR7UtLvrzIoqlyLeoZc5dNPP13pXWahHq5uLFu2zF1xxRWuW7du9r6J0nHllVdaHlKnH3bYYe7nn3+Ot4hMkSIlqi00gqeeeqp77rnn3MSJE61ioAGFH374wZQGKtrff//d0iqDQw891O2xxx4mIE+fPt09+OCD7p577om3Ojdz5kznvbcFwaNFixamYFUkxd3TiBEjTOgYPny4e+ONN9yuu+4abyk9//znP61iHj9+vJs/f75bsmSJO/vss+OtzjVs2NDSwjJ16tR4S+kp7pqBM844wwSLyqCoe1q4cKHr27eve+ihh9zTTz9t78GBBx7o/vrrL9temfAuoiihJPFuJqGD4t1337UymjRpkil93HcuQHn069fPrbfeenFKQRDYwjvKgpJQ2ZS0LquM97qo96Sk319lUFS5FvUMuQydaaHtYTn//PPdWWedFW+tHnzzzTeua9eurm7duu7ll1+2ulNkzn//+193//33u5deesnqdPJz0KBB8VaRKVKkRLUFBWDbbbe135tuuqkJ5999952tt23b1vXu3dsEkMqkf//++feEktSpUyc3b948W6cXlB7jwLXXXutOP/30Cu8VLOqeZs+e7f71r3+Z8EMelhf0ctFww+qrr26jhuGaEHpDw1K/fv14S+kp7powatQoE7J23333OKViKeqeHnjgAbf11lu79u3b2zoKL4JweYwIZgo9k+RJunfx4YcfdocffriVGSCgzpkzx3344Ye2Xp2hjthhhx1cnTp14pSCIGAk39NatWrFWyqPktRllfVeF/WelOT7qyyKKteiniFXWX/99d0tt9wSr+Upk6NHj3aDBw+OU6oH//jHP+wdQ+ivXbt2nCoy5a677rI6fY011rD1Y445xtojRvtE5kiREtWW448/3rVs2dL99ttv7qabbjJzEszXqpIhQ4ZYbyf8/fffJhgHs7XWrVvnV/5fffWVe+SRR0yRqmiKuqfbbrvNlCxGHfh/yCGHuLlz59q2soBSMGDAgHjNuY8//jit+V559ggXd01MeoYNG1ZgNK6iKeqe3n77bbfRRhvZb6hXr54Jy6RnE3xfQYmCpk2b2n9GSmoC2T5qURXvdTpK+s2Lyod2h/YngPUBJt5rrbVWnJL9LFq0yI0dO9bqSSwsGJmiM7IqRvCrO6ltD515mHBXlWl5dUeKlKjW4KuBXw+9bZi+VEWPcWHccccd5tOQzo776quvNnO6ym7IUu8JU8MwrD9u3DjXqlUr16NHD+vdLi+otPFnGzp0aJziXIMGDdzmm29uPWKM0mFeUJ6kXhOTKHrgeP5GjRpZWmWTek+MnpIPSXgfli5dGq9lBzvvvLP1Xge/OgRkKMwcLlegLO677z77XviNkvDLL7/EW7ODbHiv05HumxfZAZ14Tz31VKV04pUn+PqiEG622WbWCXnjjTfagvmtyIzvv/++QNsT5JBsa3uqC1KkRLVmk002cW+99ZZ75513bGgaP6lsAJ8XlLtnnnlmJROEzz77zJzWTzvttDilckh3Tz/++KP17tE4IRhfc801NgKB31l5gPkX/jSPPvqoa9euXZzqrLwY+cKRHqd0RsLKy9k13TXPOeccC+aA0sZIyvLly00orqyGI909MbLz008/2e8AeVAeZo7lCYEOGJUhoEuvXr1McEcJrmyz2coGxYn3dPHixeYfRkcDPeDZRFW/1+ko7JsX2cFll11WJZ14ZYW2insmKNK6665rHagDBw40pUpkxjrrrFOg7Qltb7a1PdUFKVKi2oKAE2BUBTMSfH6qmscff9xMJ+iRRdhMdQCnBw0nX+65sijsnhCOMZkI4NuAX8Gqq5a9asDhnEbv3nvvdbvttptF8MJ8IMmaa65pdu9U5PSUlpXCrkkQEvKAd4QFPyRMHolWVNEUdk/4qiX9jLBP//zzz13nzp3jlOwAv7oXX3wx37QGYZ3AAjUJygS/mvfffz9OyQ6q8r1OR0m+eVF10In37LPPupNPPjlOqT7QVtHxRnTKAO1HebRVNY3UtgeTPqxDytNPuiahN1BUSxjNwOQmCDY4z9JA0GNelVx11VVmZvPEE09YJU8vcVKoofJ64YUXTHmoLIq6p+OOO856joOTKUEnMI/EUbwsMKLFyAWmUaG3nKhiCFZ33313gWhRlFuHDh3K3Htd1DUZWUB5DAvPd91119m1K5Ki7gkH31mzZuXbpY8ZM8bCNWNamY3gi4BfYseOHd2RRx4Zp+YmKPZErwzBEii3119/3SIWZhNV9V6no6h3XWQHBBaiE6QyO/HKC4KE4MsTwvtjasxoFPWoyIyTTjrJzLWDqTKRfDH3Rz4QpcALUQ2JhDp/wQUX+K222srvt99+fuutt/aRAOH//vvveA/vI2XFd+/e3a+66qo+qiR8JKjGWyqGKVOm4JW+0tK6det4D+/79+/vb7/99nit4inunsivYcOGWT7utddefvfdd/eRcGbbygJ5nu66n3zyiZ86daqPFCcfCaV+77339n379vVffPFFfGTpKeqaqfTu3dvff//98VrFUdw9RQKv32abbXyvXr38jjvu6BcsWGDplc3ChQvt3YyUWd+sWTP7nXwPPvvsM7/HHnv4SAH3v//+e5xa/Zk0aZKPlELfsGFD36lTJ3/CCSf4SLiw+mXAgAF+yy239AcddJCPlFsfKQjxUZVPSeuyin6vi3pPMvn+KprCyhWKe9dzlQ8++MC3adOmWn+/7733ntWTPXv29DvssIOPFEP7VkXmXHnllX777bf3u+yyi9XrP//8c7xFZMoq/IkqOyFEJYCfBSYvRB4SVQfzaTVv3tyCa4iiwZaeUTLmnWHEQWQveq9FYWANwbfMlAtCiPJDipQQQgghhBBCZIh8pIQQQgghhBAiQ6RICSGEEEIIIUSGSJESQgghhBBCiAyRj5TIGgjLuvfee8droibDJMtMEMwiCkf5lN1MnDhRdVoGKL9yE5Vr7kGZMrWKkCIlsggm3Dv22GPjNVGTefnll+19YBGFo3zKbpjzRnVayVF+5SYq19yDMmXuOiFFSmQRu+yyiwmG1QkmAmZy3aefftptsMEGbubMma5x48bxVlFamDiS94FFFI7yKbspjzqNiZAJPY/g8vvvv9tkuzvttFO8Nbcoj/yqrnz22WfuiiuusHJmku5c6hypyeVaEv7++2+bkH3YsGFu2223tXcg21GZrkA+UkKUEvogDj74YNe7d2/3zDPPuDp16liFWJWcddZZbpVVVil0effdd+M9RVlB8DniiCPMrG6ttdZyLVu2dNdee629F6J8+PHHH90jjzziDjvsMNegQYMa2XCjLC9ZssTmiNpss83cb7/9Fm+pOugw2muvvdy6667ratWq5TbaaCN33333xVtFaXj11VfdF198YcqyqFn88MMP7o033nDffPNNnJJ7zJkzx3Xq1MnkkKZNm7rNN9/crb322q5Zs2ZuwIAB7rvvvov3rH5IkRKilEybNs0qv759+5pQMX/+fLfOOuvEW6uOo446yo0dO7bAgrK31VZbWeUlyg7CLJPUwqJFi6whPPLII915553nbr31VksXZWf//fd348ePd6uttppbunRpnFpz+PXXX92IESPs3WrXrp373//+5/bcc894a9XA+867v/3225vg9/PPP7vdd9/dnXDCCW7ChAnxXiJT+vXrZ3koah5Ysfz73/92LVq0iFNyjy222MJ8eoH6bO7cudZBdMMNN1gnDJ1l1RUpUkKUkldeecV6VtZYY404pXJBgKEXMwkVMordgQcemL/ssccett/QoUOtN0iUHUxvsA+nN2311Ve35fLLL3f169dXz3w5MmXKFPfwww+7Qw89NE6pWSB4/PTTTzbaWVXgVJ7k888/d7/88ouNQlGfMBI/fPhw2zZu3Dj7L4QQqaTKH6yjVPXs2dO99NJLbvHixfGWwkGWQfbJJqRICVFKvvrqKzNrqSpuvPFGd88998RreQwZMsQdcMAB8Voet9xyi5ngMColiodK+rXXXjPflMLYcsst3R133OGOOeaYOMXZu9CqVSsbnRJF8/bbb5sZkyga6hioqnpm6tSp7pRTTonX8ujatav75JNPTAAKhM4kOhZE4RRVt8gkuOZS08ue0XZghKooaFuRY7LNDFCKlBClgOHo0aNHuy+//NJM5lgYodpxxx1NqHjyySdtP8z/SKtdu3Z+2pVXXum23nprM7N76KGHXOfOna1nZtNNN80f+g48+uij5ny68847m3/EIYccYn4jCPD4ThDkIlx/wYIF8VEroOG+7rrrTMHSaFR6LrnkEte+fXvXtm1bExApG8qMnnfKjLzt1q2bKaNHH320HbPqqqu6k08+2fYNLF++3JSDjh07xikCGL3j/W3YsKE5UeNQTZ5edNFFtv2yyy4zxXS77bYz01gUf+Hc888/n59HvXr1sjxjdG6//fZzjRo1Mn9I+L//+z9LI39DGj6b5Dn5yTH77ruvjZryDj/44IO2T2D27Nlmmkw906VLFzPZw5+BcuC6yTqOcwGBEDgf4NPD1BV8P3wTYgVF1S3w+uuvm8UA+5Dvp512mqWLigFTVNpOBHfed+rqBx54IN6a52NMu4yp6oUXXmgWHpgVM2KCT2zgzz//NAsEjt9tt93sfOFbhTfffNPOQZvN+QjMgBtAEszDucYmm2zittlmG/MfmjdvXrx1BY899ph9e5wLf1y+taI6+aojCxcudHXr1nVt2rSJU1aGkSjMA6nvQn04aNAg+0173Lx58/xw7IyMk+907CBvYQ7N76uvvtoC9SALsZ7a1iB/8T0ii5HX+MATUKxYIk1YiKygR48e8a/qQf/+/X3r1q3jtTyixpKuJT927Ng4xftIUFkp7cwzz/T16tXzI0aM8FGl66MP36+99tp+//33j/fwPhI6fVSJ+8mTJ9v6/fffb+eJhBlbjypeu4eiiJQoH1XAPqp445TqwdChQ/Ofu6L54IMPfL9+/XyDBg38+eef7xctWuRHjRrlo8rdR0qxHzlypO33zjvvWJ4XRqQUW/m8/PLLcUrFU5n5VFqWLl3qp0yZYnkTCZF+woQJPhIY/KRJk/zEiRMtnbwGvge+jVT4dtgv2581lbLWaeGbp15JQr2Tmk+RIlUgLeQZaZHAbksksNl7/vfff9s+c+fOtXooEgptPdRfJ554oq1zbGodlyQS/n0kAPkOHTr4SAiJU0tPdWsDiqOwuuXHH3/0L7zwgq9Vq5a/++67471XlFlqeVd3sqFcf/nlF2sLd911V79s2TJLoz6hjaXeCfTu3dtHQrl//PHH/UcffWTlRfnxji9fvtz2OfbYY33Lli39F198Yeu0w5Qb6+GbihSe/O+M76t27dp+xowZtk57HClaPlLm/FdffWVpkNqmP/LII75Ro0Z2TnjvvffsPMn7rSpKW6ahTgo8+eSTfvXVV/c33HBDnFI4hX0flOkOO+wQr+Vx0kknWf0JQQYbMGCA1VNz5szxffr0sTTyGN5//32/1lpr5a///PPPVubsVxxSpETWUNMUqdRjjzjiCN++fXv7TQXcokULf8ghh9g6IGxSgS5ZssTWi1OkaDjWW289awiqG5WtIFAe5FVo+GD+/PlWbpdddpk1oL/99pt/6aWX4q0FoTFs1qyZHzRoUJxSOVQHRQp4Z8nL22+/PU7Jg3XSQ74iaKKwphIaUClSeWSiSCWPvfPOOy3tyy+/tHWEfN7bP//809Z//fVXf+utt5qiC+nqqSQIJAic3bt3N4E0CCGlJdcUKUhXt8Dmm2/uDz744Hgtj8IExepONpTrXXfdZXk7bdq0OCWPvn37WifmH3/8YesoUqn3G+opOn8WLFhgv2+55ZZ4q/evvfaafauUcVCcaS8CKE58Z/vuu6+tP/roo3YOvp8kqW36hhtuaAoB9WdYtt56a1McqprSlinPvc466/gtt9zSN23a1PL+qaeeircWTWHfB52dpNNmA0oQim5QmIMMlmw/fv/9d9una9euto5yjOKUzOuBAwdaZ0dQoAtDpn1CZAmY/4XQt0TGwkwMc6cA/jdnnHGGhQwtCZHQZMEPaqqjfqbgNJ80f9x4443NPAqzSPLxggsuMBOMVDC1xHSKfQl/LgonNTALUfkwN8M8BtOMqEFVZMkKhDoGQj2DuRHmZpgvAeVz6qmnmhlRScC0qU+fPuYojjnMueeeG28RSVLrFswliVrGey8qh2Bah0lfEtpYfG8wQS6MECmTfZiGAJJtM6bfTDhMGXMdTNAo8wCmZ7QdmPrDc889Z4GqijIDp/0noBEuA8ngUbRFmIpWZ3BR4LmI8kl9HymLBXxmmeaCvAxLcZM5cz7yJVJmbZ05ufClqlevnq2ng7owUgbzyx3Twe+//75AXuPLS9kWN+WEFCkhspC/4/moivuAC4OwydgDY4NNJS4yB+ESPxWCenTq1MnC02L3ngR7beznaQxGjRqVL5CKkkG4X/xxzj77bJsnCh8RJp8VlQP1TGnrmCQIJfj+IAxR94iiIRKjqBp8GQI74MdTkra5uGuUpPz/+OMP+z9w4EBTLJJLapCp6gZKJh3CKJdEuSVaX3LaEJRdfDfDgh9tUaAw0WGMvxv+Y+QPyllJoEyB/KYzNDWvWZgnsigkYQlRjoRex7IKE4Q7pqcep/GiKuVly5bFvwrCaNSaa65pc0qJ0oGAzwgJDsj0MuLIykSkYT4jegvprUK5GjlyZL4SxQgW+4niGTt2rAnf119/vQVL2WeffWx0QxQN9Ux5KCwILLzbRYUdTq1jXnjhBeutTRUkmUePUcUgmIjCIVgHo3+poeVFxUEgFZgxY4b9D7COUM+IamFMnjzZ/hOoIIxoEegpHVznnXfeKTCxMsoXASiIeAmM+BLEYNasWbaeDixQmjRpkvNTChBohVHx5LeA4hIC3LCQF0nSyT2MWn399dfW8YnMxKhgUaBwMb0GyhNwD5RzYTJVUUiREqIcQZCgt4XeFSpThHFGNTKFUaQgkFNBfPTRRxbyE8UqnI/rMPScrLCBnhVGoy6++OL8yFoic8jz5JxQ9CISYQkTAhpAGkwi+9AQoEgRkY6FyGZESxTFg3kHZi6AsEG+JU1mAqEXWORBdCsiStLwo4AibKXWAyWBEWsikBH1j8l+MXHCdOnee++17dQxmLvwLQTYjw6GEMGPssGkFaGEekcUD0oUEQ6pz5nEmzJE0CYSrKgY6FTs0KGDmWgzDxpQ/zzxxBM24pGcYiDZeUkbS1vKZMkoW1gfYEqGhQIRcYkEiCk+nZd0rrEv3wQRG8N5iBy3ZMkSi7QLxx9/vCkLjKLQnn/44YfukUceyY/mCHTMEQkQ8zdG6Wn/6byYNGlSfnTO6kpq5zBmeETM4xsoimAuSR2UCiPimOMT1bCw0ahwXWQkrCCwKEHOAo7DTJ+yff/9903RYjSMci92BDE6sRBZQXVyNB48eLBv3LixjxQei7QXoo4BDt1NmjQxJ8VevXrlO4x37NjRIrpFH65t51gCTEAkgOSn4ewanCTvuOMO365dOzseB1YcWYkEBRzDNYg0Q8Sajz/+2NJxjI0ErWIdJLOZygyiQHng/EreU16R8mrpOBC3atXKb7TRRhZdaZdddvHvvvuubcOBnDIpbKmse68OwSYIXEC0PvIlaujs2wkQPIW879y5s30fkbDjI2E+3prnlL3VVlvZt8HxwTkY5+HqQFnqNKJ2EnyG5yaYw7PPPhtv8eYwT16yjbwj4APBJghqgBP8mDFjfKT02/Zu3bpZ/TR+/Pj8NM4X3nPqpC5dutj7T31CNLFIuLNtvFucNxLqrBwiodOctIcNG2b1Et8GEc522mknO39ZqU5tQEkorG4B8vGMM86w+pvte+yxh33PyTLLFbKlXBcvXmzBHNq2bWsRLKlzQlTWAO0vkfEIPECUP97z4cOH5wdkAQI5EVgo1EsbbLCB1WtEKIVZs2ZZeUaKlwUV4flTg1xMnTrVvimOJxAF3xTXRK6gbQ/cdttt1p6zX/369S2K3PTp0+OtVUemZUqdTV3Fc6y55pr+uOOOi7d4q/PZRrRD6p833ngj3lKQb7/9Nl8eou7h+0pCOVFfBfkpwLU5hvqRPKe89t5775UCG1Hfbbfddvl1Ie3W6NGjVwoUk8oq/IkuIESVw1wL2KOKssEQOb1d9NBUV+i5431gEYWjfMpuVKdlhvIrN6lO5YrZKiOzeg+LprzLlFE8zLwjJcYsPUrjb8yoHqbKI0aMiFPyYLSL+TojRalC2kqZ9gmRY+y9997VWokSQgghRM0BBQrfcAIQlTZo0+23314lk1pLkRJCCCGEEDUa/JjwRcJ3hmAQ8s3Mfu6++27Xr18/8ycjLDx+zEnwh1q4cKH95n/wjytPpEgJIYQQQogazfDhw91GG21kEdyYEw2FSmQ3KErMG/X666+7m266KU5dAYEpiA7bv39/M+3D/K+8kSIlhBBCCCFqNEThC9FXWdZZZ514i8hWMOUj8ihKEmHsU8HNIVmmAwYMiLeUH1KkhBBCCCGEECJDFLVPZA2NGzd2W265ZbwmajJETWKuFRZROB9//LH1wvHtiOyDueRUp5Uc5VduonLNPShTmT7mIUVKZA0KfStEZij8eXajOi0zlF+5ico191CZrkCmfUIIIUSWwgz7gwcPNn+N+vXru6lTp8ZbRC7x2WefuVNOOcVG4T/99NM4VdQEiA44evRo17FjR3fsscfGqaK6IEVKiCyBSeSaN2/u5s2bF6dUDUxIiNBGjxMLE/wGZs2a5YYOHeo6depk29KBQMCz7L777q5WrVpxasl47rnn7Nzt2rVzrVq1smshSAbOOussu26XLl3cKqusoh6xHOfHH3+0KEuHHXaYa9CgQY0sb0YdCcs8ffp0t9lmm7nffvst3lJ1zJw50+21115u3XXXtW+cSGf33XdfvFWUhldffdUmJP3999/jFFFTwJSdiWS/+eabOCX3wAw9tNvME9WtWze3ePHieGv1RoqUEFnCzz//bBUq4TyrGiLdILSyMMEvPPDAAxYSlvtkro10LFiwwPXt29fNnTvXBAKi6ZQUGpL99tvPDRw40H300UfW837nnXe6Cy64IN7DuX//+992T/Teidxn//33d+PHj7eGd+nSpXFqzeHXX3+1TokjjzzSOhcI5bvnnnvGW6uGRYsWuR49erjtt9/eBD/qAzpNTjjhBDdhwoR4L5EpzIVDHoqaBz6utG1MRpurMMcTbTy+csgXhCunIyYXkCIlRJZw4YUXmuC01VZbxSnZxTHHHONefPFFd/3117umTZvGqQVhMjx6zlGAtt122zi1ZPD8jEYFYaJ169Zm0nTDDTe4L7/80tJEzWLKlCnu4YcfdoceemicUrN466233E8//WQz/lcVyRFp+Pzzz21SS0ah6F2uU6eOzb8D48aNs/9CCJEO6gyWkpBa92QrUqSEyCKWLVsW/6pZEP2HkaaePXvGKXnsscceZtr39NNPxykiF3j77bfNjEkUzVdffWX/MzWRLS8YFcZvJ0nXrl3dJ598YqNkgRBds1mzZvZfpIfRu9dee62AuXJAcb9qLir7lUlX92QrUqSEyAKYkXvTTTctMLR/+OGHu4033tgEFvwk8J/CxOm4444zZ2QmlsP5HN+Ra665Jj7KuSuvvNJmZt98881tArotttjCeoCwT8ZOediwYXad2rVrW09/JuZ35QWjTFyfGcfh3XfftcYkted9gw02sP+EWhXVk/fee8/tvPPOrmHDhvY+8v4x6nrRRRfZ9ssuu8zMPbbbbjvzzbvlllssvabz/PPP5+dRr169LM8YncP8tVGjRuYvCHRCkEb+hrRnnnnG8pz85Jh9993Xrb766mZK8+CDD9o+gdmzZ5u/EyPI1BGY7M2ZM8fKgesyGsy1w/Vhww03tPMBJrz//Oc/zXTn5JNPtjSRxyWXXOLat29veYPySb2MWROjeoB5E51F7EO+M7moqDgwRcWyAjNZ3neCO2CyHuD7od3EVBULCUzuaHPp4MP3N0Cbefnll9vxu+22m50vfKvw5ptv2jnwaeR8+PVi1pYEX0eugRXHNttsY9YY6fyjH3vsMfv2ONd6661n31o6RTyXSFf3MOodRsF33XXX/IAsyEfURXxXV199tdVhlNv999+fvz9lkOpfW675SvhzIbKBHj16xL9qJkOHDvWRMBSv5RFVrj4SMP24ceP822+/7QcOHEjXlY8qEj9+/Hg/a9YsHwlBftVVV/Xff/99fJT3Z555pl977bX96NGjbZ9IgPVRheLbtGnjo4bDznX++efbuZ588sn4qDx69+5tS1FwX8WVF/dQWBUTNTq2jfuCSKGyde43SVSxWfohhxwSp+QRCSWWPnny5DilZsI7k+15sHTpUj9lyhQrr6ix8xMmTPCRwOAnTZrkJ06caOkLFy60fUeMGGHvTSrh/ahu5V3WOi0SBuy5ed+TtG7deqV8ou5IpoU8Iy0S2G2JBDbfoEED//fff9s+c+fO9fXq1fORUGjr4bs68cQTbZ1juVZhRMK/r1u3ru/QoYN/66234tTSk2ttwAcffOD79etneU59u2jRIj9q1Cj/448/+hdeeMHXqlXL33333fHeK8ostbyrO9lQrr/88ouPhGZrO5ctW2Zp1CeRomT1ToC2r3nz5v7xxx/3H330kZUX5cc7vnz5ctvn2GOP9S1btvRffPGFrffv39/KjfXwTUWCef53xvdVu3ZtP2PGDFunXYsULR8pc/6rr76yNKBd5VyBRx55xDdq1MjOCe+9956dJ3m/VUVpy7QksgOkq3teeeUVy2fakMDnn3/uI4XJ8hRuvPFG2+fmm2/2CxYssLYnUqSsnvrwww9tn/LOV41ICZHlRBW49SjTax96vQ444ADrsencubMbNGiQhU8l0EMSeqiJdsY+UeVsI16c4+ijj7b/l156qe1XFVECGYWIhGe7r5JQUptqkX2stdZaNioK9B4SvIReQHp56aUHgotAnz595HBfztDLjjkey0knnWQ+V19//bVto5eXUe0Q0IWe2VtvvdXqlJJw7733uoceeshGyOhVj4TOeIsAesTxJ40Ea7MUwBIASwOsCCJB0epxLAtExcN7On/+fHfFFVdYeQAjRdQ5Q4YMcZGSZGnACCHpjCRSXox00E6+9NJL7v3337eR9Ugxduuvv77tz3fFCAhWI3xTjJBgRRLaLUae+EZIgyeeeML8jTmGb64wOI7gTVyHQFSYzjIKFiw5aho77bSTlQn5HyAPsdJZddWC6szpp59u5cgxjD7hf059BeWdr1KkhKhGYA6XCs7eUFzY3NRjS3pcRUClR3jzAEPxQJjnJGHmdEyURPUn+NIEiMqHuRnmMQghTz31lJlhiIoh1AHhm8fcCHMzzJeA8jn11FNN0S0JCB8InAiYdNQQ1VOsDHVtsjMIkyUim/Lei8ohmNalBkHCpBhhGhPkwgiRMtmHYErAcQFCeTP/E2XMdeg4Cu0r0N7R0TBt2jRbZ5oPFGy+n8LAhxTztVdeecWmJAkLHR8oE7kCyiz5Fpai5lBjO0rTk08+abICHciYKh9//PHxHumhbsJNgPKriHyVIiWEqHKCH1fwHQiEdezHRe5BDz3+OGeffbb10uMjQk+vqBwQRMpjXioUNHwUEFLo+RVFw6igqBp8GQI71K1b174ZKOq7Ke4aJSn/MA0K04GEqUjCcs8999i2XIBnwU8zLGGUrzDwcSNvGP1mVA/ZoahRvSSUX0XkqxQpIUSlQ2OEaV8AswccSOmpS4LDPRHLGLkQuQemFAjfhNTHNHWfffax0Q1RNHQ6lIfCQu88PehFTYyZGkn0hRdesB7cVEESsylGFRFWRNEQrIPRv+oS3jkXIAgBzJgxw/4HWF977bVt1KIwJk+ebP8xEwsjWoVFkuU6BEdKWnrQ3hGAAvNaYMT322+/tQnuCwOLjSZNmuT8lAKYv4aAEixJy5l0UYzJF0ZyMe+7++67SxTg5sMPP7T57wjAUxH5KkVKCJExoVeuKIraB18vhAnsmwPYrhMWO9gxI1hfd9115uNRXC+VqJ5gXhGUZ94XwkMnTWYCJXnfahJt2rQx8xYEPL4ThILSmOjiK0AEMqL+MdkvJk6YLoVvEPOk77//Pt+HDdgPE8wQwY+yufbaa23OL3xJRPGgRCEAEl3xvPPOszJE0NZE4xXHUUcdZf7G+AMyDxpQ/+CvhM9ucoqB5IgSbdLFF19svpsoW5geH3LIITaBLu0TkQAR0pk7EZMx9uWbIGJjOA/+cZiiBR8pTNHwHSVqLp2FCPqPPPJIAYsMzG1pJ5nkmlF6JsGn82LSpEn50TmrI+RJSUYF09U9AfIPBZh59oh6mY5wDRRW9seMktGsCsnX6GJCZAW5FrEpEyIBxK+33np8+b5nz54++vgtehDR+Iguw3bSiDjEPm3btvVjxoyxKEBbbbWVpXXu3Nm//PLLfsiQIb5JkyZ27OGHH27njxptixBF9CG2E7WI63Ac0YduueUW2w+KitoXVVoWvYjjOB/XTEYKA6IVbbnllj4SFmw/IiXttNNO8dY8rr/+ejs+NWJg1KhYVJ8NNtjAt2jRwkcNj48EvXjrChS1L4/qELWPCH1E66O8Nt54Yz948OB4S16UvnXWWcfeo6ih85Gw4yNhPt7q/aOPPmrvN+9zeFe7du3qZ8+eHe+R3ZSlTiOiZfv27e25u3fv7p999tl4i/fTpk2zvGQbeUeEMaL2UYfwLVM3bLLJJra9W7duFhWRKJ8hjfPNnDnTzkWd0aVLF6sv+CaJJsZ3CLxbnJfIZpRDJHT6SGHzw4YN8+3atbNoWUQ44/vm/GUl19oA6lreb/K2V69e+XkO5OMZZ5zhI4HatlO38j0nyyxXyJZyXbx4sUXFo/0kgiV1zsiRI+OtedD21a5d29o52i7e8+HDhxdoh4gAOGjQoPx6ifaKeo0IpUCkXMozUrwsYhzPzzebZOrUqfltd7Nmzeyb4pqNGze29j5w2223WbRd9qtfv77v06ePnz59ery16si0TIlgucMOO9hz8L5TjycjFqaSru4JkP/IMpRLKiFqH/UjcghyxIABA3ykMMV75FGe+boKf6ITCVHl4HSInaqoWjDbAXq8sxV6/uiVp0ee96amQg8nz1+T8yCbUZ2WGcqv3KQ6lSvtHyOzeg+LpirLFLWFyMOM5qX6RzFSSNTRylRtZNonhFiJV1991SpKlmyy42fonXsiJK0QQgghahb4aaJIlTTIREUjRUoIUQBGorAbpreJhXl/sgV6m7gnHOTpcUKpEkIIIcoKfky0fUy7gW+NfDOzB6LtEZCKwESDBw82H7RU8H0jeBHgWxUi9FU0UqSEEEIIIUSNhsl0iSLH3GrMiRbmMRRVD0FxMOkfNmyYO+ecc9JGWSRgBwowE/1ffvnlFhinMpCPlMgaqtLmVojqiHykshvVaZmh/MpNVK65h8p0BVKkRNawySabWAhRIb7++msLD8siCueWW26xGfPD/CQiuyDEteq0kqP8yk1UrrkHZUrYfiFFSmQRzCt07LHHxmuiJkNPF+8Diygc5VN2w6SRqtNKjvIrN1G55h6UKaZ2QoqUyCI0VCwCMlkrGcqn7KY86rS//vrLJo5EcGHS3WeffdbttNNO8dbcojzyS2QfKteiIajFmDFjzP9n2223tW8921GZrkDBJkSNhKhvzZo1cw888ECcUjUwZ8U666xjlRJLMtT4rFmz3NChQ12nTp1sWzp+/PFHc7A87LDDXIMGDUpcsRGZb5VVVllpSV4nhBrv0qWLbVOlWZDPPvvMHXHEERaCFRPEli1bumuvvbZS56/IdUr7fucSKMtEE5s+fbrbbLPNbBb+qmbmzJlur732cuuuu66rVauWOejfd9998dbspjrU/UmIIrf++utbxNKS8Nxzz1mb0a5dO9eqVStrQ1DGA+F6OOtTr4uqh3mreC+/+eabOCV3eeedd1yvXr1cw4YN7Tts0qSJ22OPPdyiRYviPaofUqREjQRhhMqLcJlVzY477mgCIksINU4jT9Sgn3/+2RrSwth///3d+PHj3WqrreaWLl0ap5aMzTff3I0dO7bAQo9YIIQaHz16dJwiArw/PXr0sN80ALxLRx55pDvvvPPcrbfeaumi7JTl/c4Ffv31VzdixAh7txCMiUK15557xlurBt533v3tt9/eBD/qqN13392dcMIJbsKECfFe2Uu21/1J6JTBJO6rr76KU4oGYXy//fZzAwcOtPDPU6dONd+kCy64IN4jzxyY5Z///GecIqqaxo0bW3vbokWLOCU3ofOR0XQ6YPCDpv7gnWXeyqLknGxHipSokdAjh5nMKaecEqdkF8ccc4x78cUXbc6Epk2bxqkrM2XKFPfwww+7Qw89NE4pOfSG0iuaXGjYRfG89957Zh9Oj9rqq69uC+FW69evX2165qsDZXm/c4G33nrL/fTTTzbaWVWkjpR8/vnnpoQwCsWIRp06dSxsNIwbN87+ZzPZXvcnufnmm01xXXPNNeOUornwwgttNAqlFlq3bm1z7txwww3uyy+/tDQhqoqRI0dafXbZZZe5unXrWtrGG29sgcaKgw4bFK5sRIqUqLHQM5k0eRACqLBfe+21It8NZlW/4447TOENYOKEKQ293aJo3n777fyJE0XhhJEI3q2qgBGNVIWDCJGffPKJjZIF1lhjDftPx0J1oDrU/XwjQ4YMMdNWOmqKgzmPGGnq2bNnnJIHZlM869NPPx2niGyjppiDY6IMqSaMkyZNch06dIjX0nPjjTe6e+65J17LLqRIiRoHIz34/eDXMmfOHEs7/PDDrWcE4QCfhObNm5s50XHHHWcjDwMGDLDRBvw0rrnmGjsGrrzySpu8DzM5HES32GIL66Xl/B9//LGZyjFcX7t2betVZ1K5yobeSK6P6V46arpPDzOkt2/f3rVt29YERMqTkTl63vEl22qrrVy3bt3MHOHoo4+2Y1ZddVUL/8q+geXLl5ty0LFjxzhFAKN3O++8s9nE843wTZCnF110kW2ndxLFdLvttrNRUkK6C+eef/75/DzCp4A8Y3QO061GjRqZDyMgQJNG/oa0Z555xvKc/OSYfffd14Rx3uEHH3zQ9gnMnj3b/J1wcqfewmSPepFy4LqMZHDtcH0gSmQQ7hndwUyM74dvIptJV/eXtg5P5jF5igJDm7HBBhtYzzkKEKND1BVMUUB9UlKWLVtmbRKj3IUJmL179zaTMMyl4N1337W6PHX0kvsBfFNqOgjwdH5hJsv7Tl2d9JXj++E9wFSV0T3ylzKlbEM+A+8AZcPxu+22m50vfKvw5ptv2jnwaeR8jIJiwpYEZZ5rMBrD+8G7Mm/evHjrCh577DH79jgX/rh8a9W1Azgo+X379nXTpk2z38Bz8X0VBmWGXEZnQKiLMFkNo+K77rprfgRBZDjqJtrwU089tUTlSX5eeumlVhYsbdq0ya/rSkT04QmRFfTo0SP+VfFMnjwZ7cFHQkSc4n1UkflImPPjxo3zb7/9th84cKDtE32kfvz48X7WrFk+Ejh81DD677//Pj7K+zPPPNOvvfbafvTo0bZP1Bj76OP20cfoo0raznX++efbuSLBPD4qj6gxtKUouK/i8iZSkuz8PFcqUQVv27ivAPtHwoSPBDLbxv9IWSzwXIFIuSj03BXF0KFDK+16H3zwge/Xr5+PlGQrp0WLFvlRo0b5hQsX+jXWWMOPHDnS9osEESuLwnjooYcsn15++eU4peKpzHwqLUuXLvVTpkyxvIkaNz9hwgQfCQx+0qRJfuLEiZZOXsOIESPse0qlqPc7mylrnXb//ffbc/MNJmnduvVK+RQpUgXSQp6R9vrrr9sSCWz2nv/999+2z9y5c329evV8JBTaevjWTzzxRFvnWK5VGJHS5evWresjYd+/9dZbcWrpqYw2gHeIZ0zW/TxnaerwkMdXX321nz59un/ppZd8JBT6OnXq+Ouuu85HArXVJZHw5iMhPT4qj6LqfvJ/7733zi8nyvbGG2+034Hu3bv7WrVq+ffff9/Ww73wDEkiIdHSDznkkDglj/BuVQaV2bYXxi+//OIjZcTa80hRtTTeBcqGeidAmTRv3tw//vjj/qOPPrLy45vhHV++fLntc+yxx/pIYfVffPGFrffv39/ykvXwTUUKT3758X1FioKfMWOGrVMmkXDvI2XOf/XVV5YGtC+cKxAp49Y2c05477337DzJ+60qSlumDz74oG/SpInJUSeccIJ9WyUhNW/glVdesXynTQl8/vnnPlKwLI+hJOV58sknW122ZMkSW+fb4P6SdURRSJESWUNlVrbpGtPUD/Wbb76xfZINWBD8EEoC6YQNKuxkI/nbb7/ZcVdccUWckkdRjWmgrIoUFUoQVAM//PCD//TTT63inzZtmj/77LPt+J133jneYwW5rkgBZYgAFBo+mD9/vj33ZZddZhUuZYiglA4aw2bNmvlBgwbFKZVDdVCkgAaKvLz99tvjlDxYJz3kK0osCmsqUqRKr0glj73zzjst7csvv7R1OhB4b//8809b//XXX/2tt95qii6kq9uSzJkzxwQUhHoEUgS/slAZbQDvEHmQqkiVpg5Pl8f/+Mc/rCySdOnSxffs2TNey6Owun/MmDF+nXXWKSBgp1OkUAy+/vrreK14Rapv375xSh41TZG666677Hlp75KQLyjRf/zxh61TJqn3G+opOn8WLFhgv2+55ZZ4q/evvfaa5SftR+iU430JUAZ8Z/vuu6+tP/roo3YOvp8kqTLIhhtu6E866SSrP8Oy9dZbmzJY1ZSlTFFkr7rqKuvMJR/4ZkIdVBjpFCnyu23btv6www6LU7y118OHD4/Xii/Pjz/+2DpN6DAJeUz9yPZLL700PqJoZNonRCGkG2rGsRowZymK1GNLelxFgGkJvjtJoobZHJEJq4sJC0EtTjzxRHPuT2deUBOgjDATCGDqiekOfgqYdRL5ChOMVAjRjekU+xL+XBRO8KUJEJUPczPMYzCnfeqpp8wUQ1QMoV4K9RDmRpi1Ye4ClA/mMJgRlQRMm/r06eMiRdjCaRNpNFcobR1eWLtRkrof879IcDZzY0y/MFdiiQRGM+Hkd4g2iLN+0icNsyWIBEH7H+A4wASxJhNM6zDpS4JJMX6tmCAXRoiUyT5MQwAcF8D0m+iKtB9cB/PQ8L5AMO8M5myEqCeIVFFm4JiJU96vvPJKgYBQtEWY0VZn6tWrZ3PjBbPvSLGxBTCDJB/DQh4UBttxv8AEn/ee7wQz2+OPPz7eIz3J8nz99dfNJJZouyGPmdYkUr7yv6nikCIlhDBwIgcUA+FMuMRPBSfXTp06WXhabK2TIKRgb43wP2rUqHyBVJQMfE/wVTn77LPN//C0006zBlZUDggeCOxlBeUBnwSEP0K2i9KBbw1C/Zlnnml+GmEh9D8+OfxGCE9H8O1K9cUK69RhwpnQXFpQXvlmoKjvprhrELmuOP744w/7Tyj7ELI+LNkadKE48EFMKqzU/2PHjjVFE4UGeLbZs2fnL3T2FgX+U+QV7S8+kHwH+FyVBMoz5DPRdlPz+fTTT7dtxSFFSogch4p/4cKF8VpeJU/vz/z58+OUPBiJokeaikg4E/AZIcEBmV7Gq666yiYiDfMZ0VNGTyTKFWFdgxLFCBb7ieKhEUX4ZkR0wYIFbp999rHRDVE0CMzlobDQO8+7vXjx4jhlZQh8kOSFF16wXttUQZL6hFHFENZYZA75Sv2cumBBQIcOv9kHGJlKRj8jAAlO96mKFp1BRH1k9Lcmg+UFzJgxw/4HWF977bVtRLUwJk+ebP+ZAymMaBUWBZHrENgjOQJJG4ySHDorGfH99ttvbdL9wsCKhMlqq8OUAiUFRSo1hHkYwQ1BUQggEQJKsCRHeFPrIiCfsGjg3HfffXeJAt4kyzMEjCpLPkuREiLLCT1gRVHUPkQTIsrW/fffb+uffPKJme8kJ2SkJ+e2225zV199tUW0Es4mtEzOCUUvIhF9MK2gAaTBpOeLiH8oUlTkLET7IYS6KB7MVoLgxztMviVNZgIl+QZqEoxMYM6CQIACihBQGrNhIlkRgYyof0z2y2gIpkv33nuvbcc86fvvv7dvIcB+dDCEqFaUDSatmAVTf4jKgQ4chM/3338/TnHuiiuusLDpofx4N6677jrrDCquZz/XOeqooywCIibawTyS+ueJJ56wyKHJKQZQWAPk58UXX2xzc6FsYX1wyCGHmIUCeYsyy1xfRJGjc419+SYwzwznITIkpmdEngNMz2hniQKJovvhhx9alMfkaCIdc7TdTHLNKD0T1tJ5QajwEJ2zOoKsEaxeeCZGfTChO+OMMyytMKiLKIt09Rz5iULMvHuE+0+lqPJkpPaAAw6wsnnggQesgwpLE9p0JkMvEdEFhMgKKsshlQh8HTt25Msyx82XX37ZHBKJ0kKEHCIwffvtt+bQyT44M+IATMSdrbbaytI6d+5sxw0ZMiQ/As3hhx9u5ycCDNGUcDhlO46VOBpzHJF+kk6qhTkcQ1QhWGQZjuN8XDPVwRynVe6Jewjn79q1awFH6uuvv96OT0abihoBe65IIPNRZeJ32mknc1ZOR64Hm6CMcO6mDHv16uVnzpxp6TgQt2rVyiIAEV1pl1128e+++65toxzIk8KWyrr36hBsgsAFROsjXzbeeGM/ePDgeEtelD7ynnebbzISdiwQSqAk73c2U5Y6LVLKfaSk23MTzOHZZ5+Nt3hzmCcv2UbeEfCBgAQETKF+ob6KlH7b3q1bNws2Q70X0jhfeM+pxwiGwPtPPUE0sUi4s228W5w3EuqsHCKh00eCjB82bJhv166dfRtExKL+4PxlpaLbgHR1f2nr8GQe806Sx6RTBqRFyqmdi0A+RDZkOeWUUywNiqr7U0kXbCIS/uy+UwMJUXY45kdKlm/RooWPBMS0jvw1LdgELF682AIW0PYRwZJ3IURlDVAmtWvXtraXgCO85wQvSOYhgT4ILBTqJfKaeo0IpUDkR9pv2tZI8bLnTw1yMXXq1Hx5gkAUfFNcM1IqTAYJ3HbbbdZOs1/9+vV9nz59LEJkVVOaMr322mutTouUIr/mmmta3X/00UdbwIfiIE/4JglQscMOOxQ4hvLgW00GmQiUpDz5vmnTyXvymTrttNNOs+BHJWEV/kQHClHl4GSIXWpNIphp0LucrdDLRg94JFRZGVUG9A5xrcq6XnVF+ZTdUC41rU4rCzUpvzKp+xmtiITuYictzQRGz3HUrwwRsDqVK+XCyKy+26LJpjLlHWYuQkb3Uv2jKqM8ZdonRBWDzTCVEsvEiRPj1KoH8wHuiYkhhRBClC8lrfv79etXbkpUuB4+n0LkAvhtokiVNMhEeSNFSogqhN5I7ITpLWHZe++94y1VDzbg3BPO6PT40PgKIYQoO1VV94frET1NBkkFwY+JMsFHhmAQ8s3MXoi2R3AVAhUNHjzYfNJSqazylCIlhBBCCCFqNMOHD7eocURyY060MAeXyD4IkoPbwbBhw9w555yTNupiZZWnFCkhhBBCCFGjIQpfiL7KUtMnMc5mmNSXCMSMOjGXVDoqqzylSAkhhBBCCCFEhihqn8ga2rVr544++uh4TdRkcB5t3bq123jjjeMUkQ7lU3bz4IMPqk7LAOVXbqJyzT0o0+T8cjUZKVIiayC8KwEOhGAYnveBRRSO8im7IfKl6rSSo/zKTVSuuQdlygS4QoqUyCKICkc0IVE8RNLr0qVLvJZ7aH6kkqF8ym7Ko07766+/3Pnnn29KM7P6P/vss26nnXaKt+YW5ZFfNZH333/f/D8aN24cp2QXKteiIZrcmDFjLHDCtttua996tqMyXYF8pERO8NNPP1nUlpNPPjlOqRrodVt99dWtkmFJztXx2WefuREjRrjdd9/d1apVK04tCPscccQRNh/CWmut5Vq2bOmuvfbalcLUnnbaafGvPJYvX+6ee+45S99ggw1MwE4HQ/GE2W3VqpVr0aKFO/LII933338fby0cep9WWWWVlZbkdcIzUw5sy3VKWlai9Pz44482Gelhhx3mGjRoUCMbbr4xHKqnT5/uNttsM/fbb7/FW6qOmTNnur322sutu+66VpcRGeu+++6Lt1Yu1aHuT0L9QN6FCXmLoyTtBt/Ia6+9Fq/lUZLjims3GHEIz0M9x39R/jBhLJ2j33zzTZySe8yZM8fmekI2aNq0qdtmm21cs2bN7L0644wz3NKlS+M9qx9SpEROQChMKiMa1aoGoRqBj+Wf//ynpS1YsMD17dvXzZ0713qVud9UEJB69OhhvxctWmTPg6Jz3nnnuVtvvdXSA/RSJyH8J/usueaa7osvvohTC8L5mHehefPm7uOPP3Yffvih++qrr9y+++5bovkVEGbHjh1bYElO1pv6zLlMJmUlSs/+++/vxo8f71ZbbbVq3dCWll9//dWEYd4tfEj/97//uT333DPeWjXwvvPub7/99ib4/fzzzyasn3DCCW7ChAnxXpVHttf9qRBJDOWlJJSk3Qgk24SSHldcu4HJcHiebJrjMNdgJBFFnM7NXGWLLbZwb7/9tv2mPnvzzTfd119/7S6//HJ3yy23uIEDB9q26ogUKZETUBHxUY4aNSpOyS422WQT61G+8847beg+HUyQyLwI9NLQs8lCJVO/fv1ie3sRtp566il34YUXxikrwz4IPkxgx7nr1q3rrrnmGruvxx57LN6rcOj1pRc1uaSbu6EmUJayEiVnypQp7uGHH3aHHnponFKzYEQABYHRzqpi4sSJ8a88Pv/8c/fLL7/YKBS9y3Xq1LH5WmDcuHH2vzLJ9ro/CSN5V155pevUqVOcUjQlaTfSUdLjStJuCFFepFqqsH7iiSdaXUKHWUl49dVXrfMmm5AiJXIGet3ofauuMOx9xx13FJgTAZMMzPDocS0rTzzxhDWqSTt6htfXXntt2ybyoJLGTCZ11C9JRZdVrkPPZGEjp2IFjBhDYaZZFc3UqVPdKaecEq/l0bVrV5u/hV7lwBprrGH/6VioCqpD3U+9gikwI1IbbrhhnCpEnrlnTQb/vpJYxdC29u7d23333XdxSnYgRUpUexDIMDtAIbj99tstjV4/ZrPefPPNzXGTYWV6PwjQgFkbTp0Mo9euXdt6u4PpwzPPPON23nln+7AJ79mzZ08zK8J+nJ4QbNHpTVx11VVNCaF3trzgnNj5c98BbNh5vo4dO8YppQOlADOP1J5t8oR8eOedd+IUZxUVyhY29unItUr/kksuce3bt3dt27Y1AZH833HHHa1sn3zySTNv6datm/mDhBC+FVlWuQajd3xTDRs2tG+Rb488veiii2z7ZZddZorpdtttZ98dZh7Cueeffz4/j3r16mV5xujcfvvt5xo1amR+i8Bs/aSRvyEtWY9xDOa7jJryDlOvJZk9e7b57NDJQv2IyR7+DJQD1/3yyy/t2uH6gCLA+QAFBjM2vp/K9lNKV/eXtg7/4IMPLJ+oDxldPu6448xUj+W2224zHxbyiefmXEw9kAmnnnqqvefHH398nFKQG264wdojTKZFxYBFBp1fmMnyvlNXP/DAA/HWPF9gZAZMVRmlox3k3eEdSraHyAu8Ixy/22672fnCtwqYrXEOfBo5H75lvD9JMA/nGowe8h7yTs6bNy/eugKsRfj2OBf+RHxrRXXyVTcw2UY2Kc7/jm8XOY76LtSHgwYNst98y7gsBL9ERsbJdzp2kAUxh+b31VdfbYF6kHtYT21rsADYY489zNKGvD744IPdt99+G28tgkgoEiIr6NGjR/yrdPA633jjjfGa92eeeaaPGlg/evRoP2vWLB8JcT76gHybNm18VHn6t99+259//vl2XCQwx0d5HzVklhZ9dH769On+pZde8tFH5evUqeOvu+46H1WSftSoUT6qYH1U8cZH5cH1I4EmXksP91XST++hhx6yfV9++eU4JY+o0o1/FWTJkiW2/9ChQ+OUPEL6KaecEqesIKpYfCR0xGved+/e3deqVcu///77cUrePTdt2tSvscYadp7WrVv7qILyUYMS77GC+++/v8TPVxjc/+TJk+O1iiUSoHy/fv18gwYN7H1YtGiRle/ChQvteUeOHGn7RcpmofkOhZVVRVKZ+VRaoobST5kyxfImUlD9hAkTfCQw+EmTJvmJEydaOnkNI0aMsHctlfBNZvuzplLWOi18S5GCH6fkwfeXmk/UO8m0kGekvf7667ZEApu953///bftEwkwvl69ej4SCm2d63DMiSeeaOscy7UKI1K6fN26dX2HDh18JITEqaWntPnFPSfr/tLW4aGePProo+07njlzpt0T7QZ5Eglz/pVXXrE8iQS5+Kg8iqr7IwXUr7/++v67776z9d69e9uSJBLE7dq0U+mgLNieDuoBnjkdRR0XKKzdSNK/f/9Sl09Zv4Py4JdffvGRMuJ33XVXv2zZMkujPuEdoN4JUC6RUO4ff/xx/9FHH9l7wjfDO758+XLb59hjj/UtW7b0kSJv6+QN+cd6+KYihSf/O+P7ipRkP2PGDFuPFCEfKVo+Uub8V199ZWlA+8K5ApHS7xs1amTnhPfee8/Ok7zfqqIs3ypyCO8c32akpNq5IiU33qNwwnedWh9SpjvssEO8lsdJJ51k9SfMnj3bjhswYIDVU3PmzPF9+vSxNPIYkHfWWmut/PWff/7Zypz9ikMjUiKnoZeWIAmdO3d2UQVlPQ30CjKywP9LL73U9kvXE8RIFb2zBGg46KCDzHwF51xGIQiyQA96uuPKC+z+uR69LlFFE6dWDPTQBOgJp5c2OcnrBRdcYD3X9BzRE0tvD2mMJlR3sM8milDU+FnvFT3SlC9+IPQaRkK+9UAyahUJS/FRBanMsqpu0KNPTyJgDsYIAr2r9PIyAghhYseo0bKgBaL8oJcdczyWSLgwnyveV8C3Cb8+vmWgF5bgA7zHJeHee+91Dz30kI2Q0auebX5Kpa3DGWXgO+aZGEmKZCX73717dxvtwkSvpHU/7/Y//vEPN3LkSNekSZM4dWWoS6lraKdE+cN7On/+fHfFFVdYXQ+MglDnDBkyxCwKAtT1pDPKynvCSAblHSnkFmqekXWmJIiUY9uf7yoS2m1UhG+KUUsiIIZ2lZEnvpEQFRFT+hdffNGO4ZsrDI4jaAjXwayNURRGwSKFIt6jevLf//7XRuyI1oc1DCNKmY7wJokUW/MJxPoBIkXZAt+k+tbS/jDyRx5SV2Ghc/PNN9s23gtM8/fZZx/La94HRqcY4Q4WS4UhRUrUKDCdSIKjNBRnX596HHBsRdnlE/YZMxMabUJqlxWEJSr3JUuWxCkrYKgcM5gAQShSfR1YR8GgYaECfPrpp00pDeY0uQDlmVQoUSTJfxrZIGwiWKVS3mWVywRfmgBR+TA3Q3BFCMHxHSVdVAyhHgv1FuZGKBWYLwHlg8KAolsSEEgQOBEwqQ/OPffceEv2Udo6vLDj/vjjj3itcDDB6tevn9UPdNgQoIaFThoWflP/AsIkgpyoGIJpXWrwDZRpBOcghKcjRMpkHwR24LgApt8I87QfXIeOoyBbQDAjnTZtmq0TtZHOO76fwsBslffjlVdeKRDgibaIdrg6g3kl5o/kJZ221PkoOSHoFVEiycuwkLdFccghh1i+oJgCc3LhohAU5nTwXdNZEsod00GmgknmNb68lG1xU05IkRIiy6BhpbeeyoVekyDklAXOQaWd6tNFTyvhjOmlyQTOR08vSkSuwjMyOscoFPlDeFqUyCQVUVY1CZRz/HHOPvtsmyeK+Wzo6RWVAw7exQkJJQGhBL9ChD9Ctos88P8gZD11Q5s2bfIX6hUWfufCqH51gjavtNDJGIIiFPXdFHeNkoTqD4o6YcFRLJLLPffcY9tyATp4Q9RIRn8AZRcLmLAU942gMDH6hL8bnRfkD6OEJYEyBfKbztDUvGbBqqIopEgJkUXQA0UPCAI7piBBMGdUhNC5ZYGeY84RekBhxowZpgzhVBmgpzQ5MSD7M9KSGnIUUweUqVwFAZ8REkyj6GXEkZX8C/MZVWRZ1RQwUUH4JiQ/c99gVsHohigaemnLQ2FBYOHdXrx4cZyyMpjJJMEEh97aVEESsylGFYNgIpwFwUCoTl3oLWfhNx00gICOaZ+oGAikArR5SVinnIqaymPy5Mn2n0AFYUQLq4x0cB3M1ZIjnZQtIzCY1wIjvgQxmDVrlq2ng9FJTEGrYkqBygaZA+hMAxSXEOCGJXWkNrVOAkatMFmm45PvKpiTFwYKF9NroDwBI/OUc7pzF4cUKSEqmdCjlQqVKpUwNtPYaCOcY4vNQrSsksydUNi5AXtkzo2PADa/KASMBOywww6mZAVQDIhKhS04ELmOiWbvvvtuW+cazD+Fv1Qum7Lh25CcE4peRCIsYUJQHmUlnJmthMlJea/It6TJTKCo97omwkgG3yUNPwoowlZpzIzpCaYuIOofIyeYOGFug+8TYJ6EuUvwYQP2o4MhRPCjbKgHEErwJRGlg6hvREMM5kmplPYbKMlxNeH7Ouqoo1yHDh3MRDsI7tQ/+Csx4pGcYgBBPIB518UXX2y+myhbWB9gSoYCTCh7Oh2x6mDOLjrX2Jf8JBpsOA++t5jVBx8pIjeiLDCKwsgkk+MTTTJpMULHHO8Evj6M0hPym86LSZMm5UfnzAXoxOF5GNUuLKJlIJhLUgelwog45vhENSxsNCqUB6NPyD50EtPxCRxHpzJli+yDosVoGOVe7AhidGIhsgIit5QGIn7tsssufCG+VatW/pZbbvHRx+GbNGniV111VX/44YfbfieffLJFoyMCD9uJ3EPEGI4jAg/HjRkzxkfCsqV17drVzk16JDBbWiRw2Lmij9CiVbEkI+EVFbmJKD5bbrllfuQ7IggRMS8QoisVtiQjlqVGjyPyHBGAiCbFvkT6iQTS/Kg1gY8//tjvvffe9jzNmjXzUeOSH0kqcMABB1je8exAPp166qm2f9SQ+Kiyskg2RD1MB9fkHspCZUaj410gaiHvSq9evSxSF7z22mv2Pm200UaWt7xj7777rm3LpKwqkuoQtW/evHkWrY984d0ZPHhwvCUvSh9537lzZ9+xY0d7HyNhPt7q/aOPPmrR0XgfOZ7vlO8yauDiPbKb0tZpECnlPlLS7bmJpPnss8/GW7yfNm2a5SXbyDsijFHv8F2n1mPdunWzb3n8+PH5aZwvvOcvv/yy79Kli73/1I+77767j4Q728a7xXkjoc7KIRI6faSw+WHDhvl27drZt0GEM+oxzl9WMs2vdHV/aetw3lPyhX3IW56HvOG9JI0IhexD/bbBBhtYGu3Ht99+a+crqu5PhchwLEmuv/56y/9kBFkort2AdFH7SnJcSdsNqO5R+yAS2u052rZtaxEsKduRcVTWAOUSCfUWsY084z0fPnx4gQi1kSLmBw0alF8v8T5QrxGhFIgSvMcee1h7GSle9vx8s0mmTp1q3xTH07byTXHNxo0bW7TJwG233WaRhtmvfv361vYS7a6qybRMqbORW8JzkC/UHTwvMkekHMV7Fg7fGuXBOah7aLuTUE58g8gsSbg2x1AHkOeUF3IQkXiTUN/x/oe6kHaLqM+RYhzvkR4pUiJryJbKtixk0piWhVRFKpuobopUdUb5lN3kQp1WmVTn/Mqk7n/xxRdtKS/SKVLlTS4oUiUBRUrfbfFkYx4xzcAZZ5wRr60gKFIV1VbKtE+IcgbzJMKqsoQJ4moCNfGZhRAiUNK6nyiVLNkOE5SG55k4cWKcKkR2QhRhAhZVNlKkhChHsPXF5yBEe8HutqYQnplwoj5hYy6EELlOLtb9OPqH58GRn/+5DH5M+CLhO0MwiJrgO1bdwXebKQbwJyMs/CabbBJvyQN/qIVxEBf+B/+48kSKlBDVEIXZFkIIEVCbUHaYTJf5vojgxpxoyQi3IjtBURozZox7/fXX3U033RSnroDAFESHZaLryZMnW1CP8kaKlBDVkDAbtxBCiJrNEUccYVMxiLJBFL4QfZUlOVG9yE4w5WMkGCWJMPapEM0vWaYDBgyIt5QfUqRE1qCQ0SVHjaYQItdQG1A6MGdizqFsReWae6hMV7AKESfi30JUKY0aNXKdOnWK14QQQtQkmLNHbUDuoXLNPShTfMqEFCmRRRAZKNedWYUQQqSnJrcBn332mbviiivM/IiAPUzOmyuobS8aglrg5zNs2DC37bbb2juQ7ahMVyDTPiFEzvLGG2+4Zs2auQceeCBOqRqYBX/11Ve3xoclhEbGUZZZ9Yk2hH13vXr1XJ8+fdyXX35p2wPMuI6T7GGHHeYaNGiQUQOGgDZixAi3++67F5i9Pwn74Gex3nrr2Yz7LVu2dNdee21+9MVkGGT24b8Qovx49dVX3RdffOF+//33OEXUFH744Qdrq7755ps4Jfd47rnnXPv27d0qq6xibd2JJ54Yb8ljr732svaJbRdeeGGcWj2QIiWEyFl+++03a6QqIuRppqCgoACxhNDIRIYicMhrr71m98l/nGYPOugg2x7Yf//93fjx4y0y19KlS+PU4lmwYIHr27evmzt3rgloOOWmQh716NHDfi9atMju48gjj3TnnXeeu/XWWy09GQZ57733tjQhRPlBCOcTTjghXhM1icaNG1tnW4sWLeKU3KNnz56mTAFTBRC2PMmkSZNMuaIDj5HZ6oQUKSFEzsLICQrEKaecEqdkF5jwoGA1b97c1jt37mxKDCFbmcckMGXKFPfwww+7Qw89NE4pGTihT58+3d15551mMpIO7uHTTz+1kTtGzVguv/xyV79+fXfffffFewkhhBAVR+3atQu1mkjC6G02BbuQIiWEyGkYcfnrr7/iteziiSeesPkvkqyxxhrWoKQL5VoRbLnllu6OO+5wxxxzTJzirDFr1aqVjU4JIcoHhD9GndPVR3JXr7mo7EsObVLv3r1t4uRsQYqUECInefHFF12XLl1sxGfOnDmWduWVV9pki5tvvrk59G6xxRZms81+H3/8sTn7Yl6BIsPoTzCFe+aZZ9zOO+9s84o8+OCDZqaAmd0GG2xgvWP4LxGVatVVV3XbbLON+/zzz+244lhzzTXzR6MAXyT8ubiPkvTMJUEhq1u3rhs8eHCcUjK455NPPtnyJbB8+XLz1+jYsWOcIoTIlEsuucT8QvCB/OSTT+wbY16bUD/wze6xxx62z/bbb29z4oiKAx8kOozatWtnI/TUb0n/WUzOaBvwJ8VPB5M76nnqe/xIA7QLjNpz/G677Wbnu+iii+Ktzr355pt2js0228zOh2UEPlBJ6ODjGlgN0GbQfsybNy/euoLHHnvMTKs5F/6pmIVna8dgRUNbS5vNRMm9evWyfNl1112t/aYdZ9u4ceNsX/yQsbLYdNNN3b333mv7UJ7333+/TbrM/pRNqr9xqfKbqH1CZAM9evSIfwlRPkyePJmuPj979uw4xfszzzzTr7322n706NF+1qxZPlKofFSp+jZt2vioUfVvv/22P//88+24J598Mj7K+7Fjx1ra1Vdf7adPn+5feuklH1W0vk6dOv66667zUePpR40a5aOG10cNcnxUHjfeeKNv2LBhvLYyDz30kF9//fV9pMD5Cy64wEeKTLylIOEeeK5UnnvuOdt27LHHxikF4bnZXhK4H/aNGpk4ZQX9+/fXtyoqhFx7rz744APfr18/36BBA6tTFi1aZHXEjz/+6F944QVfq1Ytf/fdd8d7r/i+I6UrTskNsqFcf/nlFx8Jxz4SvP2yZcssjXqU+nrEiBG2Dr179/bNmzf3jz/+uP/oo4+svCi/Dh065NfL1LEtW7b0X3zxha1TJ1JurM+dO9fXq1fPRwK4//vvv217pHRZ3T5jxgxbjwRzHylaPlLm/FdffWVpEClTdq7AI4884hs1amTnhPfee8/Ok7zfqqI0Zcp7TT4NHTo0TikIbVSk6MRr6Un3jfz8889+rbXWsm8sSaREWRkCbTDH3XzzzX7BggV+ypQpPlKkfN26df2HH35o+5Q2v6VIiaxBwpkobwpTpFq3bh2v5UEDSwMa+O233+y4K664Ik5JX4H/4x//WElB6tKli+/Zs2e8lkdxitTixYtNORsyZIhV7DSwobFPUpQiBZ9//nmhSlhJFSka9mbNmvlBgwbFKQWRIiUqilx8r/ju6HAJQnUAIe7ggw+O1/KQIlVx3HXXXZa306ZNi1Py6Nu3r3Ws/fHHH7ZOO5B6v7fffrsdO2nSJBPC+X3LLbfEW71/7bXXTAGgjIPiTBsSQHGiTt13331t/dFHH7VzzJkzx9YDqYrUhhtu6E866SS/ZMmS/GXrrbc2ZbCqKU2ZVpQiBccdd5x1Rv7555+2jqK055572m8IilSS+fPnWxqdl1Da/JZpnxCixoMpX5I6derY/+JCEaceBxybaQjjpk2bmmnPpZde6u655x43c+ZMMxfMFEwNCRZRWgizHjX2ZsZI9CQhRNmhTsCUKMD0BkTSxCxMVA7BtC416M52221nfjcE3SmMSCC3/+xD8B7guEC3bt3csccea2XMdTAxC20IBJPvSImzdaLXUecXZTqNaTVBgF555RV34IEH5i8EAcJUNBdJtpv/+te/LD/DUtzcWscff7x9VyEyIO0oJutFgdkfbSblWpb8liIlhBBZRBCuPvjgA/tfWWB3ji8AduOjRo0y3wAhRPnz008/xb9EZePLENgBH1QmzwV8nAqjuGuUpPyZYxAGDhyYP/VEWFASqiNBuSwsiNHixYvzfYOJtDt79uz85YADDrD0wujevbv5PuEDRYfg1KlTiz0mQLmWJb+lSAkhRBWAAyvzxjz00ENxSh7z58+3/zgwZwpO7OnmiioOeuLoVcVBeuTIkflK1JAhQ2x0TAhRfmy44YYWnXPixIlxiqhoCDYAM2bMsP8B1omQyuhEYUyePNn+77TTTvkjWk8//bT9T4XrvPPOOwVGV1C+CEDRtWtXWyeQAdNbzJo1y9bTQdTUJk2a5AdPyAUI3kBeT5gwYaUADkS0RGkh+AawL0EfwkKgiCTLli2Lf+XBqFX//v3dU0895W655RZ3+OGHFxuw6cMPP7S5E7HAKEt+S5ESQogqgMh4jz76qBs+fHj+nBiffPKJRe7CNOSoo46ytCShNzQdCGU0BoVN6lnYsTTmNP40XEQPQ5HCjIKFuauyab4OIXIBlCjMjogGysTXTJyNoD169Oh4D1HeUJ926NDBXXDBBfkTtGPGxRQUl112WQGhOzmi9Pbbb7uLL77Y6lWULUbsDznkEJtA97rrrrNIgAjjzNVHhxT7UtcSsTGch2ixS5YsMXM1wAyNaLJEhn3++edNoMeUOxntlc4sIgGidJx//vkW7ptRMCauJbpgdQRl58wzz3Tvv/++O+KII6zt+frrry16JZPQk7/J6LHpCKNazLWYCuaVtKuYyA8YMCBOLUgoExRZygHzSiI5lim/o5MKkRXIgV2UJ+PHj/dRJUmtaQ6jL7/8sgVzaNKkiV911VX94YcfbvtFAo1Fz8JBmO0EeSBYBMcRmQmn4jFjxvhNNtnE0rp27eoXLlxo6TiRk7bffvvZuc4++2wLFsFyyimnWBoUFmyCKE69evXyLVq08BtttJGPFCE/cOBAc3JNgnPyVlttZfce7ov7SAbRwOE5EtD8ueeeG6fkQfSoLbfc0rZxLIE1dtppp3jriiAUhS2pgS0UbEJUFLn2XlGfrLPOOlbf8J3PnDkz3uL977//7s844wyLNsb2PfbYw5zw+ea6detmdUyukC3lSlAf6q+2bdv6bbbZxtqHkSNHxlvzINgEkdqI0kdd2a5dOz98+PD8IAZABECC8YT6eIMNNvCDBw/2S5cute1Eg6U8iRpHUBGePzXIxdSpU61O53gCUQwbNsyu2bhxY4sMG7jtttssoiz71a9f3/fp08cCE1U1pS3TSMm0tpPAGquvvro9F0EeyM8ffvgh3qtwIgXIyoTjaDP5xpIQYCIZZCIQgk1svPHG1h7S5kbKlo8UpniPPEqT36vwJzpAiCqHuRYY2hUi16D3kt7IXJjgll4/el71rYryRm1AblKdypUAA9TTeg+LJlvL9KSTTnJ77723ixSgOCUP2uBIWSvWf600yLRPCCEqAUzkaHxYmCywOsFEweHe5dchhBAi28B88rXXXitxkInyQoqUEEJUMNhYEwSCHjwWZkuvTuDsG+4dm/Zs7IkUQoiygCCObwwRTPGhKconVWQPRPg755xzbDRq8ODBK00Bgk8c4c3ho48+yo/QV15IkRJCCCGEEDUaAv8QQpuAB+eee64pVCL7QQEmUl+zZs3ccccdF6eugEAeKMZE9bv88svTBqooC/KREllDttrcCiGEqHjUBuQmKtfcQ2W6Ao1ICSGEEEIIIUSGaERKZA1MQHr00UfHa0IIIWoSDz74oNqAHETlmntQpvgbCSlSIovAoZ0QlUIIIWoeBGVRG5B7qFxzD8qUaK5CipTIImRzK7KRN954w3Xp0iVeyx6YHX6dddZxjRs3jlPKl2x9bpG71OQ24LPPPnNXXHGF+89//uPee+89t+GGG8Zbqj9q24uG6IBjxoxxw4YNc9tuu629A9mOynQF8pESQmTMoYceaiOIy5cvj1MqH3rDVlllFWt4qNQPP/zweEueUHLEEUe49dZbz6211lquZcuW7tprr11pMr7nnnvOderUycxKW7Vq5YYOHer++uuveGsehCpfunRpvJYH5x8xYoTbfffdXa1ateLUgjBv1D/+8Q/XokULE4p22mkn9/bbb8dbi6Yk5ycSEXNmJCnJcZQZz33aaae5DTbYwCYKTgfbk5T0OBSw3XbbzbVp08aiKHXr1s1NmzYt3lo0s2bNsjKgTCjTdNxzzz2uY8eObt1113V16tSxyRcXLFgQb83rKeVYlEDeDzX2ojrw6quvWojm33//PU4RNQUmAKbe/Oabb+KU3Oaaa66xNpH6mTaaOr86I0VKCJExVPws2TDPBoI1wvLo0aNt/bfffnM9evSw34sWLbL7PPLII915553nbr31VksHGq799tvPDRw40Gy9p06d6u688053wQUXxHusIKlcIbT37dvXzZ0714Qe5odKR79+/dzrr7/u5syZ4z755BNTpFAwPv/883iP9JT0/FCa+2K+DfJhzTXXzJ9bIx2pCmVJjiNPd955Z7fPPvu4jz/+2Pbbcsst3R577OE+/PDDeK/0PPDAAxZyGAWUuVzSQfmceOKJ7r///a9bvHixe+eddyx/99xzT5srBDAhSr4PQlQHqC9OOOGEeE3UJLAqoN6i060mQFscRt2YnP7SSy+139UVKVJCiIxhZOLTTz+1EYFsA7MY7o3RECbmY2HuiPr167v77rsv3su5Cy+80EY+gvDSunVrm8zvhhtucF9++aWlpWOTTTZx06dPN6Ge0bB0TJkyxT3zzDNmqkMjSc8bIziMiF155ZXxXukpyfnTUdLjGLF66qmn7PkzoSTHoYQyukc+8szk/XXXXWfbbrrpJvtfGMccc4x78cUX3fXXX++aNm0apxZkwoQJ9j8IHDwzijDK6QsvvGBpQgghcoeJEyfGv7ITKVJCiFKxbNmy+Fd2wQjIHXfcYYJ5ADM3TPcYnQImWmTUomfPnrYeYOSEkZinn346TikdTzzxhFtttdVsBCpQu3ZtG61hWy7C6CSjettvv70pUQFMK7fZZpuVzBBLw2WXXWajYijFARQ3CGUrRLbCaCvfQepoL8hdveaisi8c2pRTTjklXstOpEgJITKCmcOxa8ZcDj744AO377772igBIz9sR3hmue2228zca6+99rLRCXxrkiMH+DVtvPHGdi5GbJo3b24KCOdgVGnAgAEmNDdo0MDsqkvCqquu6k4++WSbnT6Afw9mZvjWwLvvvmuNF75TSbg/wGSsLHA8gSDq1q0bp+TB+bGDxywNGP1CwRo7dqytV2cwJ0RATOc3x6gcymugd+/eloZPVyagJJ966qn2jgR4TyCUrRDZwiWXXOLat2/v2rZta+a91Ek77rhjvnkvpr903rAPHRCpfomifKHupYONzhdG7akzMCkO4F+5+eabm48pI+/UUdQ1dLgl6yrMpmnrOJ7OMs530UUXxVude/PNN+0cm222mZ0Pn03awSSYoHMNRtXpaMI6Yt68efHWFTz22GPmj8y5aHfx2U2niOcit9xyi+vVq5dZiJAHLMOHD3cbbbSRddbtuuuu+fU/MgQyBt/X1VdfbT6ylN/999+fvz9lkeozWx75K0VKCJERVEybbrppvOZMEXr44YetskOpOvbYY90rr7xiDdXpp59u5nRDhgxxL730klV0+MEE8GPB54bjtttuOzdp0iQ7Bvvp448/3vXp08fM5AhYgNlYUhjPBCIiMWKBnw+E8zRq1Mj+B6h44dtvv7X/pYXzp54bUs/PfigeP/30k61XZ1AaURRnz569Ug8r/ktrr712vObc999/b73zZXWsR6C59957rUFNKs5CZAP9+/e3eo33HZPbyZMnu1GjRlk9gBlrCJJDBM4ZM2YU8OEU5cuvv/5q9QR+s/hVzpw50wR12pmbb77Z9sFPifZs/vz51n6xD20bJtP4fQa/U/w07777bjNxp13D/xUzbtpAlCEsD1CM+Y3PKsoyfrucDxi9xz/3+eeft7aSIDsEIurQoYNtD/CunHTSSRZYiHti3xtvvNE6KGsCyAKY3q+//voWXIoFhTWY6J9//vn50S1RnghwhLxAOt/VkiVLzHLm2WeftXSUKRSzMP9VeeWvFCkhRLlB7xwNBj1sjBwgUPO/e/fu1rgQSS9drxsNCKNajDiEnr0DDjjAKr3OnTu7QYMGWeOTjM5WUr7++mtToDhHCEJRHEnTtIognB9TtYULF5rAlQuQz/ioXXzxxSa4/PHHH+YrRg8tvX4BBAh65RFaygLhghndQ5kSItugJxx/v3r16plvJKP2CHiMsJ955plWxzHqLiqehx56yIRlFB7KA1Bk6ayjoy85ks4IIemMJFJeCOm0WyhNKL109CGsI+ADwjgdjFhUMGJChyEWFqGeZ+SJjrUQ6RTzbhRpjmEUpDA4jgBCXIeOQPx+GQXLBQuGsoDiStkkw8STl1iyYJGSBGWM8uQYRp9ol0J7UV75K0VKCFEhYLKWCsEpEK6LorDjINMRjB9//NEUNJQ4wp8HwsgQPVZJwkgVZnllgfOnnhtSz0+lj+9WroBwiKBCJMWGDRuagnz77bfbcx988MHxXnmjVzRaZYGZ9TGNRFGjJ1KIbIX6K9k5w8gFIxV0PInKIZjWpQbiYcQQIZoOoMIgKiiwD6NTwHEBLCawxKCMuc4WW2xRIBAT9Tydi2EaCEayULCLMkfGFB2zNUZJDjzwwPwFU3eUiFxhjTXWsP8oteRfWILJXjrYjtL05JNPWjtLJyvtAaOLRYElDVYTlGN55q8UKSFEToLwjm07dtEM4Sf9amjoqIxTQ5GHdezVywLHE8Kb3q8knJ8eSOZAykXIU0ww8UVAYSbkOQ0lI40otOUFfg1nn322jWwhxAhRncgFU97qSlkCO9ABFKb8wMepMIq7RknKP3Q4EpUUv57kQkdVdeN///uf+SYHQh4Ek2+eCbPwsITRvsLA1408om1ndI82vajRvSSUY3nmrxQpIUTOQU8TAjYOvyNHjsxXojDhwE4dMwvs5ekZTIJgToS//fffP04pHZiF4LCKKUiA0TTstJMjMzTKmPblKoxGEbIcm/akyQU+U6WdfBITKUxkiOa0ww47WBo9/DKREtUF/DroYMj2sM65BMEHAF+0JKwjzCf9flPBtw0wDwsjWoVFduU6BBtKWk9Qz2Pe3LVrV1snsAF+svhGFQaWCk2aNHHjxo2LU6o3+CERTTeAmSXQyQaYwYaAEixJy5R0EYLJH0Z0Me/DX40AU8VBxx4+cliolGf+SpESQuQUNE40ZvROYRuNIkVly4LjMEEOABM0HHyDvTT+V8x5ROSm4nrDAqF3MhUaXPwfsMFmZIz9iAaEMoFtfQB/MIQq7LvTUdj5i6Mkx1XkuemRJS8ZNaIBxawlCQouJhb4G6Qj3TVIIwwuShSNJiY0oVyZe6q4CX+FyBZQoniHMUtlclLqHgRtTSJdcRx11FFmasyIeZi8G7Mu/JXwVaUDLZAcUaKNwOeToAcoW1g4HHLIIRaYgjqODiGEc4KJ0IHHvtRVRGwM56HzBxO04COFCRpRbQ899FDrvKPuop5MWkjQ+Uf7QEcUbQYWDoyCEZCJNqo6wkgTfPXVV9bJRodlcW0tJpIEawkBIpKQjyjCBKEgoEc6QhmguLI/5pSMZpVr/kYXESIr6NGjR/xLZDNRg+SjRsfXq1fPR4Ktnzdvnu/evTu1ld944439+PHj/csvv+yjCsvStt9+e9snUhZ8JDxbWs+ePX1UsfnevXv7SLnwjRo18ldffbWl7brrrrZP27Zt/ZgxY3xUUfqtttrK0jp37mznhqhStjT+JznzzDMtvbBl8uTJ8Z7eR42Y79Spk91XixYtfNTQ+T///DPemgfvZdQIxmt5REqR33LLLX0kENk5N9tsMx8pT/HWPJYtW2b507x5c1vYHjXK8dY8IgXA8vLJJ5+MU/IoyfmHDh3qx44dG6/lUZLjPvjgA7/tttv61q1b2z7k/XbbbWflk4R8SVLS4+bOnev33HNP37JlSz916tQ4tSCRkumbNGniFy5cGKfkETWGPhJ27PzkC+VNeQJlQHphS2r98cknn1h6srxFdpNrbcCQIUP8OuusY3Vcr169/MyZM+Mt3v/+++/+jDPO8JFAbdt59/mmeWe7deu20rdRncmWcl28eLHv37+/tS3bbLONtVEjR46Mt+ZBm1S7dm2rh6g/27Vr54cPH16gXYgUMT9o0CCrwygv2o/Bgwf7pUuX2vZZs2ZZeUaKl48UL3v+adOm2bYAdWNo15o1a+aHDRtm12zcuLG1hYHbbrvNt2nTxvarX7++79Onj58+fXq8terItEwjRdPawVatWlm+HXnkkf6HH36ItxYO9XfDhg19pPhYfkWKb7wlrxwaNGhg5ZPKjTfeaHmGTEKbSPs+YMAAHylM8R55lEf+rsKf6ARCVDk4G2KfKkRJoBeKiH70cmEKUFHwXuLUmgzfnQ3Qu8lz4yBbEXBu8jgTaE44jnmiCHOP425VQe8wQSgwy6EMRfajNiA3qU7lSn1K8Am9h0WTDWVKe4NpIKN6qf5RjBgSqbcyVByZ9gkhqjX4xlCpE6ZWVC0Em8AUBlOZqlKiMMvQ+yCEELkNk/ujSJU0yERFIUVKCFEtYeSD3iaCR9AzJv8CAfRE8j7gQ8X7gVIlhBDFgR8TvjL4teJTU1o/UlFxEG2PQFH4xQ4ePNh80VLBB47w5oBvVYjQV1FIkRJCiGJIhk7PJiryvrL1mYUQoiJgMl2ix2299dZmmhzm/RPZw59//mlm20zGzgTw6aItErgDRZiJ7i+//HILvV6RyEdKZA3VyY5a1Bxef/31rJyriEhfTOxLCNeKIFufW+QuagNyE5Vr7qEyXYFGpIQQogiyVZnYZJNNKkyJAilRQgghRNFoREpkDUx0x9wKQgghah7M8aY2IPdQueYelCn+yUKKlBBCCCGEEEJkjEz7hBBCCCGEECJDpEgJIYQQQgghRIZIkRJCCCGEEEKIDJEiJYQQQgghhBAZIkVKCCGEEEIIITJEipQQQgghhBBCZIgUKSGEEEIIIYTIEClSQgghhBBCCJEhUqSEEEIIIYQQIkOkSAkhhBBCCCFERjj3/z4MnN6OFsprAAAAAElFTkSuQmCC;" vertex="1" parent="1">
          <mxGeometry x="-720" y="1790" width="520" height="171" as="geometry" />
        </mxCell>
        <mxCell id="ZKxTClD7ub414lZPncy7-2" value="to ALU" style="text;html=1;align=center;verticalAlign=middle;whiteSpace=wrap;rounded=0;" vertex="1" parent="1">
          <mxGeometry x="-60" y="1581" width="60" height="30" as="geometry" />
        </mxCell>
        <mxCell id="ZKxTClD7ub414lZPncy7-4" value="" style="rounded=0;whiteSpace=wrap;html=1;" vertex="1" parent="1">
          <mxGeometry x="-730" y="1200" width="520" height="460" as="geometry" />
        </mxCell>
        <mxCell id="ZKxTClD7ub414lZPncy7-5" value="&lt;font style=&quot;font-size: 14px;&quot;&gt;&lt;u&gt;Generate Immediate values if necessary, and send immediate values to ALU&amp;nbsp;&lt;/u&gt;&lt;/font&gt;" style="text;html=1;align=center;verticalAlign=middle;whiteSpace=wrap;rounded=0;" vertex="1" parent="1">
          <mxGeometry x="-390" y="1230" width="130" height="80" as="geometry" />
        </mxCell>
        <mxCell id="ZKxTClD7ub414lZPncy7-6" value="&lt;font style=&quot;font-size: 14px;&quot;&gt;&lt;b&gt;Imm Gen&lt;/b&gt;&lt;/font&gt;" style="text;html=1;align=center;verticalAlign=middle;whiteSpace=wrap;rounded=0;" vertex="1" parent="1">
          <mxGeometry x="-555" y="1220" width="120" height="40" as="geometry" />
        </mxCell>
        <mxCell id="ZKxTClD7ub414lZPncy7-7" value="case(instruction[6:0])&lt;div&gt;0110111:&lt;br&gt;&lt;/div&gt;&lt;div&gt;0010111:&lt;br&gt;&lt;/div&gt;&lt;div&gt;&lt;span style=&quot;white-space: pre;&quot;&gt;&lt;span style=&quot;white-space: pre;&quot;&gt;&#x9;&lt;/span&gt;imm_raw = instruction[31:12]&lt;/span&gt;&lt;br&gt;&lt;/div&gt;&lt;div&gt;&lt;span style=&quot;white-space: pre;&quot;&gt;break&lt;br&gt;&lt;/span&gt;&lt;/div&gt;&lt;div&gt;&lt;span style=&quot;white-space: pre;&quot;&gt;1101111:&lt;/span&gt;&lt;/div&gt;&lt;div&gt;&lt;span style=&quot;white-space: pre;&quot;&gt;&lt;span style=&quot;white-space: pre;&quot;&gt;&#x9;&lt;/span&gt;imm_raw = instruction[31|19:12|20|30:21]&lt;br&gt;&lt;/span&gt;&lt;/div&gt;&lt;div&gt;&lt;span style=&quot;white-space: pre;&quot;&gt;break&lt;br&gt;&lt;/span&gt;&lt;/div&gt;&lt;div&gt;&lt;span style=&quot;white-space: pre;&quot;&gt;1100111:&lt;br&gt;&lt;/span&gt;&lt;/div&gt;&lt;div&gt;&lt;span style=&quot;white-space: pre;&quot;&gt;0000011:&lt;/span&gt;&lt;/div&gt;&lt;div&gt;&lt;span style=&quot;white-space: pre;&quot;&gt;0010011:&lt;/span&gt;&lt;/div&gt;&lt;div&gt;&lt;span style=&quot;white-space: pre;&quot;&gt;&lt;span style=&quot;white-space: pre;&quot;&gt;&#x9;&lt;/span&gt;imm_raw = instruction[31:20]&lt;br&gt;&lt;/span&gt;&lt;/div&gt;&lt;div&gt;&lt;span style=&quot;white-space: pre;&quot;&gt;break&lt;/span&gt;&lt;/div&gt;&lt;div&gt;&lt;span style=&quot;white-space: pre;&quot;&gt;0100011:&lt;/span&gt;&lt;/div&gt;&lt;div&gt;&lt;span style=&quot;white-space: pre;&quot;&gt;&lt;span style=&quot;white-space: pre;&quot;&gt;&#x9;&lt;/span&gt;imm_raw = instruction[31:25|11:7]&lt;br&gt;&lt;/span&gt;&lt;/div&gt;&lt;div&gt;&lt;span style=&quot;white-space: pre;&quot;&gt;break&lt;/span&gt;&lt;/div&gt;&lt;div&gt;&lt;span style=&quot;white-space: pre;&quot;&gt;1100011:&lt;/span&gt;&lt;/div&gt;&lt;div&gt;&lt;span style=&quot;white-space: pre;&quot;&gt;&lt;span style=&quot;white-space: pre;&quot;&gt;&#x9;&lt;/span&gt;imm_raw = instruction[31|7|30:25|11:7]&lt;br&gt;&lt;/span&gt;&lt;/div&gt;&lt;div&gt;&lt;span style=&quot;white-space: pre;&quot;&gt;break&lt;/span&gt;&lt;/div&gt;" style="text;html=1;align=left;verticalAlign=middle;whiteSpace=wrap;rounded=0;" vertex="1" parent="1">
          <mxGeometry x="-705" y="1270" width="250" height="300" as="geometry" />
        </mxCell>
        <mxCell id="ZKxTClD7ub414lZPncy7-8" value="imm_raw[]&lt;div&gt;|&lt;/div&gt;&lt;div&gt;|&lt;/div&gt;&lt;div&gt;\/&lt;/div&gt;&lt;div&gt;imm_final[31:0]&lt;/div&gt;" style="rounded=0;whiteSpace=wrap;html=1;" vertex="1" parent="1">
          <mxGeometry x="-415" y="1410" width="120" height="170" as="geometry" />
        </mxCell>
        <mxCell id="ZKxTClD7ub414lZPncy7-9" value="Sign Extension" style="text;html=1;align=center;verticalAlign=middle;whiteSpace=wrap;rounded=0;" vertex="1" parent="1">
          <mxGeometry x="-385" y="1415" width="60" height="30" as="geometry" />
        </mxCell>
        <mxCell id="ZKxTClD7ub414lZPncy7-10" value="" style="endArrow=classic;html=1;rounded=0;" edge="1" parent="1">
          <mxGeometry width="50" height="50" relative="1" as="geometry">
            <mxPoint x="-210" y="1600" as="sourcePoint" />
            <mxPoint x="-70" y="1600" as="targetPoint" />
          </mxGeometry>
        </mxCell>
        <mxCell id="ZKxTClD7ub414lZPncy7-11" value="" style="endArrow=none;html=1;rounded=0;" edge="1" parent="1">
          <mxGeometry width="50" height="50" relative="1" as="geometry">
            <mxPoint x="-145" y="1615" as="sourcePoint" />
            <mxPoint x="-115" y="1585" as="targetPoint" />
          </mxGeometry>
        </mxCell>
        <mxCell id="ZKxTClD7ub414lZPncy7-12" value="imm" style="text;html=1;align=center;verticalAlign=middle;whiteSpace=wrap;rounded=0;" vertex="1" parent="1">
          <mxGeometry x="-189" y="1560" width="60" height="30" as="geometry" />
        </mxCell>
        <mxCell id="ZKxTClD7ub414lZPncy7-13" value="32" style="text;html=1;align=center;verticalAlign=middle;whiteSpace=wrap;rounded=0;" vertex="1" parent="1">
          <mxGeometry x="-152" y="1600" width="60" height="30" as="geometry" />
        </mxCell>
        <mxCell id="ZKxTClD7ub414lZPncy7-14" value="imm_final" style="text;html=1;align=center;verticalAlign=middle;whiteSpace=wrap;rounded=0;" vertex="1" parent="1">
          <mxGeometry x="-280" y="1585" width="60" height="30" as="geometry" />
        </mxCell>
        <mxCell id="ZKxTClD7ub414lZPncy7-17" value="" style="endArrow=classic;html=1;rounded=0;" edge="1" parent="1">
          <mxGeometry width="50" height="50" relative="1" as="geometry">
            <mxPoint x="-840" y="1345" as="sourcePoint" />
            <mxPoint x="-730" y="1345" as="targetPoint" />
          </mxGeometry>
        </mxCell>
        <mxCell id="ZKxTClD7ub414lZPncy7-18" value="" style="endArrow=none;html=1;rounded=0;" edge="1" parent="1">
          <mxGeometry width="50" height="50" relative="1" as="geometry">
            <mxPoint x="-805" y="1360" as="sourcePoint" />
            <mxPoint x="-775" y="1330" as="targetPoint" />
          </mxGeometry>
        </mxCell>
        <mxCell id="ZKxTClD7ub414lZPncy7-19" value="32" style="text;html=1;align=center;verticalAlign=middle;whiteSpace=wrap;rounded=0;" vertex="1" parent="1">
          <mxGeometry x="-812" y="1345" width="60" height="30" as="geometry" />
        </mxCell>
        <mxCell id="ZKxTClD7ub414lZPncy7-20" value="Instruction" style="text;html=1;align=center;verticalAlign=middle;whiteSpace=wrap;rounded=0;" vertex="1" parent="1">
          <mxGeometry x="-819" y="1302" width="60" height="30" as="geometry" />
        </mxCell>
        <mxCell id="ZKxTClD7ub414lZPncy7-21" value="Andy Hu" style="rounded=0;whiteSpace=wrap;html=1;" vertex="1" parent="1">
          <mxGeometry x="-293" y="1626" width="80" height="30" as="geometry" />
        </mxCell>
      </root>
    </mxGraphModel>
  </diagram>
</mxfile>
